Dinish-CondensedRegular.ufo
<glyph name="dollar" format="2">
  <advance width="380"/>
  <unicode hex="0024"/>
  <outline>
    <contour>
      <point x="163" y="-74" type="line"/>
      <point x="217" y="-74" type="line"/>
      <point x="217" y="28" type="line"/>
      <point x="300.286" y="39.898"/>
      <point x="344" y="99.79"/>
      <point x="344" y="202" type="curve" smooth="yes"/>
      <point x="344" y="294.107"/>
      <point x="305.444" y="349.967"/>
      <point x="217" y="386" type="curve" smooth="yes"/>
      <point x="163" y="408" type="line" smooth="yes"/>
      <point x="116.919" y="426.774"/>
      <point x="97" y="458.162"/>
      <point x="97" y="512" type="curve" smooth="yes"/>
      <point x="97" y="575.108"/>
      <point x="129.563" y="613.02"/>
      <point x="183.766" y="613.02" type="curve" smooth="yes"/>
      <point x="240.956" y="613.02"/>
      <point x="270.497" y="576.268"/>
      <point x="273" y="502" type="curve"/>
      <point x="337" y="502" type="line"/>
      <point x="331" y="605.333"/>
      <point x="291" y="662.667"/>
      <point x="217" y="674" type="curve"/>
      <point x="217" y="771" type="line"/>
      <point x="163" y="771" type="line"/>
      <point x="163" y="675" type="line"/>
      <point x="77.5294" y="665.35"/>
      <point x="29" y="602.697"/>
      <point x="29" y="502" type="curve" smooth="yes"/>
      <point x="29" y="417.704"/>
      <point x="61.1214" y="373.308"/>
      <point x="152" y="332" type="curve" smooth="yes"/>
      <point x="201.582" y="309.463" type="line"/>
      <point x="256.852" y="279.146"/>
      <point x="275" y="250.358"/>
      <point x="275" y="193" type="curve" smooth="yes"/>
      <point x="275" y="118.978"/>
      <point x="245.977" y="84.8079"/>
      <point x="183.106" y="84.8079" type="curve" smooth="yes"/>
      <point x="127.974" y="84.8079"/>
      <point x="101.176" y="120.659"/>
      <point x="97" y="200" type="curve"/>
      <point x="27" y="200" type="line"/>
      <point x="31" y="91.3333"/>
      <point x="76.3333" y="33.6667"/>
      <point x="163" y="27" type="curve"/>
    </contour>
  </outline>
</glyph>
<glyph name="period" format="2">
  <advance width="163"/>
  <unicode hex="002E"/>
  <outline>
    <contour>
      <point x="42" y="0" type="line"/>
      <point x="122" y="0" type="line"/>
      <point x="122" y="91" type="line"/>
      <point x="42" y="91" type="line"/>
    </contour>
  </outline>
</glyph>
<glyph name="one" format="2">
  <advance width="280"/>
  <unicode hex="0031"/>
  <outline>
    <contour>
      <point x="144" y="0" type="line"/>
      <point x="213" y="0" type="line"/>
      <point x="213" y="707" type="line"/>
      <point x="144" y="707" type="line"/>
      <point x="40" y="625" type="line"/>
      <point x="40" y="538" type="line"/>
      <point x="144" y="620" type="line"/>
    </contour>
  </outline>
</glyph>
<glyph name="at" format="2">
  <advance width="751"/>
  <unicode hex="0040"/>
  <outline>
    <contour>
      <point x="554" y="-16" type="line"/>
      <point x="500.455" y="-53.4818"/>
      <point x="448.044" y="-69"/>
      <point x="375" y="-69" type="curve" smooth="yes"/>
      <point x="213.459" y="-69"/>
      <point x="119" y="35.4219"/>
      <point x="119" y="214" type="curve" smooth="yes"/>
      <point x="119" y="371" type="line" smooth="yes"/>
      <point x="119" y="545.036"/>
      <point x="212.988" y="646"/>
      <point x="375" y="646" type="curve" smooth="yes"/>
      <point x="535.652" y="646"/>
      <point x="634" y="544.614"/>
      <point x="634" y="379" type="curve" smooth="yes"/>
      <point x="634" y="214" type="line" smooth="yes"/>
      <point x="634" y="149.021"/>
      <point x="613.775" y="119"/>
      <point x="570" y="119" type="curve" smooth="yes"/>
      <point x="532.948" y="119"/>
      <point x="510" y="146.156"/>
      <point x="510" y="190" type="curve" smooth="yes"/>
      <point x="510" y="502" type="line"/>
      <point x="440" y="502" type="line"/>
      <point x="440" y="463" type="line"/>
      <point x="420.667" y="494.333"/>
      <point x="391.333" y="510"/>
      <point x="352" y="510" type="curve" smooth="yes"/>
      <point x="275.338" y="510"/>
      <point x="239" y="461.764"/>
      <point x="239" y="360" type="curve" smooth="yes"/>
      <point x="239" y="210" type="line" smooth="yes"/>
      <point x="239" y="107.449"/>
      <point x="276.919" y="57"/>
      <point x="354" y="57" type="curve" smooth="yes"/>
      <point x="407.861" y="57"/>
      <point x="441.05" y="77.978"/>
      <point x="460" y="124" type="curve"/>
      <point x="477.32" y="81.3659"/>
      <point x="516.96" y="57"/>
      <point x="569" y="57" type="curve" smooth="yes"/>
      <point x="654.134" y="57"/>
      <point x="700" y="114.42"/>
      <point x="700" y="221" type="curve" smooth="yes"/>
      <point x="700" y="380" type="line" smooth="yes"/>
      <point x="700" y="576.751"/>
      <point x="569.359" y="709"/>
      <point x="375" y="709" type="curve" smooth="yes"/>
      <point x="178.488" y="709"/>
      <point x="51" y="576.004"/>
      <point x="51" y="371" type="curve" smooth="yes"/>
      <point x="51" y="213" type="line" smooth="yes"/>
      <point x="51" y="1.3558"/>
      <point x="175.661" y="-131"/>
      <point x="375" y="-131" type="curve" smooth="yes"/>
      <point x="457.698" y="-131"/>
      <point x="524.039" y="-111.285"/>
      <point x="587" y="-68" type="curve"/>
    </contour>
    <contour>
      <point x="374" y="121" type="curve" smooth="yes"/>
      <point x="329.481" y="121"/>
      <point x="309" y="149.359"/>
      <point x="309" y="211" type="curve" smooth="yes"/>
      <point x="309" y="359" type="line" smooth="yes"/>
      <point x="309" y="419.123"/>
      <point x="329.08" y="446"/>
      <point x="374" y="446" type="curve" smooth="yes"/>
      <point x="419.5" y="446"/>
      <point x="440" y="418.667"/>
      <point x="440" y="358" type="curve" smooth="yes"/>
      <point x="440" y="212" type="line" smooth="yes"/>
      <point x="440" y="149.516"/>
      <point x="419.318" y="121"/>
    </contour>
  </outline>
</glyph>
<glyph name="A" format="2">
  <advance width="472"/>
  <unicode hex="0041"/>
  <anchor x="236" y="760" name="top"/>
  <anchor x="236" y="667" name="t.ring"/>
  <anchor x="236" y="-86" name="bottom"/>
  <anchor x="458" y="0" name="b.cedilla"/>
  <outline>
    <contour>
      <point x="9" y="0" type="line"/>
      <point x="87" y="0" type="line"/>
      <point x="132" y="180" type="line"/>
      <point x="339" y="180" type="line"/>
      <point x="384" y="0" type="line"/>
      <point x="463" y="0" type="line"/>
      <point x="270" y="707" type="line"/>
      <point x="202" y="707" type="line"/>
    </contour>
    <contour>
      <point x="148" y="245" type="line"/>
      <point x="236" y="594" type="line"/>
      <point x="323" y="245" type="line"/>
    </contour>
  </outline>
  <guideline angle="90" name="h1" x="236" y="0"/>
</glyph>
<glyph name="B" format="2">
  <advance width="481"/>
  <unicode hex="0042"/>
  <anchor x="207" y="760" name="top"/>
  <anchor x="207" y="-86" name="bottom"/>
  <outline>
    <contour>
      <point x="109.82" y="0" type="line"/>
      <point x="243" y="0" type="line" smooth="yes"/>
      <point x="367.718" y="0"/>
      <point x="428" y="63.5405"/>
      <point x="428" y="195" type="curve" smooth="yes"/>
      <point x="428" y="291"/>
      <point x="394.667" y="348.333"/>
      <point x="328" y="367" type="curve"/>
      <point x="390" y="389.667"/>
      <point x="421" y="441.333"/>
      <point x="421" y="522" type="curve" smooth="yes"/>
      <point x="421" y="648.767"/>
      <point x="364.656" y="707"/>
      <point x="242" y="707" type="curve" smooth="yes"/>
      <point x="109.82" y="707" type="line"/>
      <point x="109.82" y="640" type="line"/>
      <point x="237" y="640" type="line" smooth="yes"/>
      <point x="314.311" y="640"/>
      <point x="346" y="604.532"/>
      <point x="346" y="518" type="curve" smooth="yes"/>
      <point x="346" y="438.664"/>
      <point x="310" y="399"/>
      <point x="236" y="399" type="curve" smooth="yes"/>
      <point x="109.82" y="399" type="line"/>
      <point x="109.82" y="333" type="line"/>
      <point x="237" y="333" type="line" smooth="yes"/>
      <point x="314.333" y="333"/>
      <point x="353" y="288.667"/>
      <point x="353" y="200" type="curve" smooth="yes"/>
      <point x="353" y="108.476"/>
      <point x="316.825" y="67"/>
      <point x="237" y="67" type="curve" smooth="yes"/>
      <point x="109.82" y="67" type="line"/>
    </contour>
    <contour>
      <point x="61" y="0" type="line"/>
      <point x="136" y="-0.0023" type="line"/>
      <point x="136" y="707.389" type="line"/>
      <point x="61" y="707" type="line"/>
    </contour>
  </outline>
  <guideline angle="90" name="h1" x="207" y="0"/>
</glyph>
<glyph name="G" format="2">
  <advance width="489"/>
  <unicode hex="0047"/>
  <anchor x="246" y="760" name="top"/>
  <anchor x="246" y="-86" name="bottom"/>
  <outline>
    <contour>
      <point x="245" y="300" type="line"/>
      <point x="361" y="300" type="line"/>
      <point x="361" y="202" type="line" smooth="yes"/>
      <point x="361" y="107.577"/>
      <point x="321.935" y="59"/>
      <point x="246" y="59" type="curve" smooth="yes"/>
      <point x="167.331" y="59"/>
      <point x="128" y="108.333"/>
      <point x="128" y="205" type="curve" smooth="yes"/>
      <point x="128" y="494" type="line" smooth="yes"/>
      <point x="128" y="596.667"/>
      <point x="167.333" y="648"/>
      <point x="246" y="648" type="curve" smooth="yes"/>
      <point x="317.87" y="648"/>
      <point x="361" y="599.994"/>
      <point x="361" y="520" type="curve" smooth="yes"/>
      <point x="361" y="508" type="line"/>
      <point x="436" y="508" type="line"/>
      <point x="436" y="520" type="line" smooth="yes"/>
      <point x="436" y="641.123"/>
      <point x="363.415" y="716"/>
      <point x="246" y="716" type="curve" smooth="yes"/>
      <point x="123.367" y="716"/>
      <point x="53" y="637.611"/>
      <point x="53" y="501" type="curve" smooth="yes"/>
      <point x="53" y="206" type="line" smooth="yes"/>
      <point x="53" y="70.7715"/>
      <point x="124.042" y="-8"/>
      <point x="246" y="-8" type="curve" smooth="yes"/>
      <point x="366.369" y="-8"/>
      <point x="436" y="70.0596"/>
      <point x="436" y="205" type="curve" smooth="yes"/>
      <point x="436" y="362" type="line"/>
      <point x="245" y="362" type="line"/>
    </contour>
  </outline>
  <guideline angle="90" name="h1" x="246" y="0"/>
</glyph>
<glyph name="I" format="2">
  <advance width="208"/>
  <unicode hex="0049"/>
  <anchor x="105" y="760" name="top"/>
  <anchor x="143" y="0" name="b.cedilla"/>
  <anchor x="105" y="-86" name="bottom"/>
  <outline>
    <contour>
      <point x="67" y="0" type="line"/>
      <point x="143" y="0" type="line"/>
      <point x="143" y="707" type="line"/>
      <point x="67" y="707" type="line"/>
    </contour>
  </outline>
  <guideline angle="90" name="h1" x="105" y="0"/>
</glyph>
<glyph name="N" format="2">
  <advance width="514"/>
  <unicode hex="004E"/>
  <anchor x="254" y="760" name="top"/>
  <anchor x="254" y="-86" name="bottom"/>
  <outline>
    <contour>
      <point x="61" y="0" type="line"/>
      <point x="136" y="0" type="line"/>
      <point x="136" y="543" type="line"/>
      <point x="378" y="0" type="line"/>
      <point x="453" y="0" type="line"/>
      <point x="453" y="707" type="line"/>
      <point x="378" y="707" type="line"/>
      <point x="378" y="163" type="line"/>
      <point x="136" y="707" type="line"/>
      <point x="61" y="707" type="line"/>
    </contour>
  </outline>
  <guideline angle="90" name="h1" x="254" y="0"/>
</glyph>
<glyph name="V" format="2">
  <advance width="433"/>
  <unicode hex="0056"/>
  <anchor x="217" y="760" name="top"/>
  <anchor x="217" y="-86" name="bottom"/>
  <outline>
    <contour>
      <point x="181" y="0" type="line"/>
      <point x="253" y="0" type="line"/>
      <point x="424" y="707" type="line"/>
      <point x="344" y="707" type="line"/>
      <point x="217" y="117" type="line"/>
      <point x="89" y="707" type="line"/>
      <point x="9" y="707" type="line"/>
    </contour>
  </outline>
  <guideline angle="90" name="h1" x="217" y="0"/>
</glyph>
<glyph name="W" format="2">
  <advance width="670"/>
  <unicode hex="0057"/>
  <anchor x="336" y="760" name="top"/>
  <anchor x="336" y="-86" name="bottom"/>
  <outline>
    <contour>
      <point x="148" y="0" type="line"/>
      <point x="228" y="0" type="line"/>
      <point x="336" y="596" type="line"/>
      <point x="444" y="0" type="line"/>
      <point x="524" y="0" type="line"/>
      <point x="662" y="707" type="line"/>
      <point x="588" y="707" type="line"/>
      <point x="487" y="113" type="line"/>
      <point x="387" y="707" type="line"/>
      <point x="289" y="707" type="line"/>
      <point x="189" y="113" type="line"/>
      <point x="87" y="707" type="line"/>
      <point x="9" y="707" type="line"/>
    </contour>
  </outline>
  <guideline angle="90" name="h1" x="336" y="0"/>
</glyph>
<glyph name="a" format="2">
  <advance width="410"/>
  <unicode hex="0061"/>
  <anchor x="205" y="590" name="top"/>
  <anchor x="205" y="578" name="t.ring"/>
  <anchor x="205" y="-86" name="bottom"/>
  <anchor x="350" y="0" name="b.cedilla"/>
  <outline>
    <contour>
      <point x="284" y="0" type="line"/>
      <point x="350" y="0" type="line"/>
      <point x="350" y="384" type="line" smooth="yes"/>
      <point x="350" y="482.897"/>
      <point x="295.97" y="538"/>
      <point x="199" y="538" type="curve" smooth="yes"/>
      <point x="109.796" y="538"/>
      <point x="54" y="484.513"/>
      <point x="54" y="399" type="curve" smooth="yes"/>
      <point x="54" y="390" type="line"/>
      <point x="120" y="390" type="line"/>
      <point x="120" y="398" type="line" smooth="yes"/>
      <point x="120" y="447.679"/>
      <point x="148.684" y="476"/>
      <point x="199" y="476" type="curve" smooth="yes"/>
      <point x="253.667" y="476"/>
      <point x="281" y="446.333"/>
      <point x="281" y="387" type="curve" smooth="yes"/>
      <point x="281" y="302" type="line"/>
      <point x="199" y="302" type="line" smooth="yes"/>
      <point x="97.7719" y="302"/>
      <point x="41" y="247.384"/>
      <point x="41" y="150" type="curve" smooth="yes"/>
      <point x="41" y="48.5037"/>
      <point x="89.2785" y="-8"/>
      <point x="176" y="-8" type="curve" smooth="yes"/>
      <point x="224" y="-8"/>
      <point x="260" y="11"/>
      <point x="284" y="49" type="curve"/>
    </contour>
    <contour>
      <point x="281" y="250" type="line"/>
      <point x="281" y="152" type="line" smooth="yes"/>
      <point x="281" y="88.4481"/>
      <point x="248.926" y="52"/>
      <point x="193" y="52" type="curve" smooth="yes"/>
      <point x="138.329" y="52"/>
      <point x="111" y="85.6667"/>
      <point x="111" y="151" type="curve" smooth="yes"/>
      <point x="111" y="217"/>
      <point x="142.667" y="250"/>
      <point x="206" y="250" type="curve" smooth="yes"/>
    </contour>
  </outline>
  <guideline angle="90" name="h1" x="205" y="0"/>
</glyph>
<glyph name="c" format="2">
  <advance width="418"/>
  <unicode hex="0063"/>
  <anchor x="205" y="590" name="top"/>
  <anchor x="183" y="0" name="b.cedilla"/>
  <anchor x="236" y="-86" name="bottom"/>
  <outline>
    <contour>
      <point x="298" y="175" type="line"/>
      <point x="298" y="161" type="line" smooth="yes"/>
      <point x="298" y="89.6667"/>
      <point x="269" y="54"/>
      <point x="211" y="54" type="curve" smooth="yes"/>
      <point x="148.81" y="54"/>
      <point x="121" y="92.9333"/>
      <point x="121" y="180" type="curve" smooth="yes"/>
      <point x="121" y="349" type="line" smooth="yes"/>
      <point x="121" y="436.538"/>
      <point x="148.778" y="475"/>
      <point x="212" y="475" type="curve" smooth="yes"/>
      <point x="269.333" y="475"/>
      <point x="298" y="439.667"/>
      <point x="298" y="369" type="curve" smooth="yes"/>
      <point x="298" y="354" type="line"/>
      <point x="368" y="354" type="line"/>
      <point x="368" y="369" type="line" smooth="yes"/>
      <point x="368" y="479.488"/>
      <point x="313.643" y="538"/>
      <point x="211" y="538" type="curve" smooth="yes"/>
      <point x="105.527" y="538"/>
      <point x="51" y="476.317"/>
      <point x="51" y="357" type="curve" smooth="yes"/>
      <point x="51" y="172" type="line" smooth="yes"/>
      <point x="51" y="53.2684"/>
      <point x="105.801" y="-8"/>
      <point x="212" y="-8" type="curve" smooth="yes"/>
      <point x="313.333" y="-8"/>
      <point x="368" y="51.5727"/>
      <point x="368" y="162" type="curve" smooth="yes"/>
      <point x="368" y="175" type="line"/>
    </contour>
  </outline>
  <guideline angle="90" name="h1" x="205" y="0"/>
</glyph>
<glyph name="d" format="2">
  <advance width="421"/>
  <unicode hex="0064"/>
  <anchor x="195" y="590" name="top"/>
  <anchor x="195" y="-86" name="bottom"/>
  <outline>
    <contour>
      <point x="292" y="0" type="line"/>
      <point x="361" y="0" type="line"/>
      <point x="361" y="707" type="line"/>
      <point x="292" y="707" type="line"/>
      <point x="292" y="478" type="line"/>
      <point x="268.667" y="518"/>
      <point x="234.667" y="538"/>
      <point x="190" y="538" type="curve" smooth="yes"/>
      <point x="102.077" y="538"/>
      <point x="51" y="471.489"/>
      <point x="51" y="357" type="curve" smooth="yes"/>
      <point x="51" y="172" type="line" smooth="yes"/>
      <point x="51" y="59.6481"/>
      <point x="103.239" y="-8"/>
      <point x="190" y="-8" type="curve" smooth="yes"/>
      <point x="234.667" y="-8"/>
      <point x="268.667" y="10.6667"/>
      <point x="292" y="48" type="curve"/>
    </contour>
    <contour>
      <point x="204" y="54" type="curve" smooth="yes"/>
      <point x="146.804" y="54"/>
      <point x="121" y="93.1727"/>
      <point x="121" y="180" type="curve" smooth="yes"/>
      <point x="121" y="349" type="line" smooth="yes"/>
      <point x="121" y="433"/>
      <point x="148.667" y="475"/>
      <point x="204" y="475" type="curve" smooth="yes"/>
      <point x="262.667" y="475"/>
      <point x="292" y="432.667"/>
      <point x="292" y="348" type="curve" smooth="yes"/>
      <point x="292" y="179" type="line" smooth="yes"/>
      <point x="292" y="98.3443"/>
      <point x="260.782" y="54"/>
    </contour>
  </outline>
  <guideline angle="90" name="vertical" x="195" y="0"/>
  <guideline angle="0" name="horizontal" x="0" y="590"/>
</glyph>
<glyph name="f" format="2">
  <advance width="294"/>
  <unicode hex="0066"/>
  <anchor x="157" y="760" name="top"/>
  <anchor x="236" y="-86" name="bottom"/>
  <outline>
    <contour>
      <point x="103" y="0" type="line"/>
      <point x="173" y="0" type="line"/>
      <point x="173" y="475" type="line"/>
      <point x="264" y="475" type="line"/>
      <point x="264" y="529" type="line"/>
      <point x="173" y="529" type="line"/>
      <point x="173" y="578" type="line" smooth="yes"/>
      <point x="173" y="629.218"/>
      <point x="194.185" y="651"/>
      <point x="244" y="651" type="curve" smooth="yes"/>
      <point x="264" y="651" type="line"/>
      <point x="264" y="707" type="line"/>
      <point x="238" y="707" type="line" smooth="yes"/>
      <point x="149.971" y="707"/>
      <point x="103" y="658.637"/>
      <point x="103" y="568" type="curve" smooth="yes"/>
      <point x="103" y="529" type="line"/>
      <point x="40" y="529" type="line"/>
      <point x="40" y="475" type="line"/>
      <point x="103" y="475" type="line"/>
    </contour>
  </outline>
  <guideline angle="90" name="h1" x="157" y="0"/>
</glyph>
<glyph name="i" format="2">
  <advance width="203"/>
  <unicode hex="0069"/>
  <anchor x="136" y="0" name="b.cedilla"/>
  <anchor x="102" y="-86" name="bottom"/>
  <outline>
    <contour>
      <point x="67" y="0" type="line"/>
      <point x="136" y="0" type="line"/>
      <point x="136" y="529" type="line"/>
      <point x="67" y="529" type="line"/>
    </contour>
    <contour>
      <point x="67" y="613" type="line"/>
      <point x="137" y="613" type="line"/>
      <point x="137" y="706" type="line"/>
      <point x="67" y="706" type="line"/>
    </contour>
  </outline>
</glyph>
<glyph name="l" format="2">
  <advance width="239"/>
  <unicode hex="006C"/>
  <anchor x="96" y="760" name="top"/>
  <anchor x="150" y="-86" name="bottom"/>
  <anchor x="216" y="397" name="dot"/>
  <outline>
    <contour>
      <point x="219" y="0" type="line"/>
      <point x="219" y="62" type="line"/>
      <point x="204" y="62" type="line" smooth="yes"/>
      <point x="155.333" y="62"/>
      <point x="131" y="89"/>
      <point x="131" y="143" type="curve" smooth="yes"/>
      <point x="131" y="707" type="line"/>
      <point x="60" y="707" type="line"/>
      <point x="60" y="140" type="line" smooth="yes"/>
      <point x="60" y="49.6998"/>
      <point x="110.41" y="0"/>
      <point x="202" y="0" type="curve" smooth="yes"/>
    </contour>
  </outline>
  <guideline angle="90" name="h1" x="96" y="0"/>
</glyph>
<glyph name="q" format="2">
  <advance width="421"/>
  <unicode hex="0071"/>
  <anchor x="204" y="590" name="top"/>
  <anchor x="236" y="-86" name="bottom"/>
  <outline>
    <contour>
      <point x="292" y="-156" type="line"/>
      <point x="361" y="-156" type="line"/>
      <point x="361" y="529" type="line"/>
      <point x="292" y="529" type="line"/>
      <point x="292" y="478" type="line"/>
      <point x="268.667" y="518"/>
      <point x="235" y="538"/>
      <point x="191" y="538" type="curve" smooth="yes"/>
      <point x="102.076" y="538"/>
      <point x="51" y="471.967"/>
      <point x="51" y="357" type="curve" smooth="yes"/>
      <point x="51" y="172" type="line" smooth="yes"/>
      <point x="51" y="57.8082"/>
      <point x="101.819" y="-8"/>
      <point x="190" y="-8" type="curve" smooth="yes"/>
      <point x="234.667" y="-8"/>
      <point x="268.667" y="10.3333"/>
      <point x="292" y="47" type="curve"/>
    </contour>
    <contour>
      <point x="204" y="54" type="curve" smooth="yes"/>
      <point x="146.804" y="54"/>
      <point x="121" y="93.1727"/>
      <point x="121" y="180" type="curve" smooth="yes"/>
      <point x="121" y="349" type="line" smooth="yes"/>
      <point x="121" y="433"/>
      <point x="148.667" y="475"/>
      <point x="204" y="475" type="curve" smooth="yes"/>
      <point x="262.667" y="475"/>
      <point x="292" y="432.667"/>
      <point x="292" y="348" type="curve" smooth="yes"/>
      <point x="292" y="179" type="line" smooth="yes"/>
      <point x="292" y="98.3443"/>
      <point x="260.782" y="54"/>
    </contour>
  </outline>
  <guideline angle="90" name="h1" x="204" y="0"/>
</glyph>
<glyph name="v" format="2">
  <advance width="379"/>
  <unicode hex="0076"/>
  <anchor x="190" y="590" name="top"/>
  <anchor x="190" y="-86" name="bottom"/>
  <outline>
    <contour>
      <point x="155" y="0" type="line"/>
      <point x="224" y="0" type="line"/>
      <point x="365" y="529" type="line"/>
      <point x="289" y="529" type="line"/>
      <point x="190" y="111" type="line"/>
      <point x="91" y="529" type="line"/>
      <point x="15" y="529" type="line"/>
    </contour>
  </outline>
  <guideline angle="90" name="h1" x="190" y="0"/>
</glyph>
<glyph name="cent" format="2">
  <advance width="418"/>
  <unicode hex="00A2"/>
  <outline>
    <contour>
      <point x="186" y="-102" type="line"/>
      <point x="241" y="-102" type="line"/>
      <point x="241" y="-6" type="line"/>
      <point x="323.595" y="5.01265"/>
      <point x="368" y="63.7533"/>
      <point x="368" y="162" type="curve" smooth="yes"/>
      <point x="368" y="175" type="line"/>
      <point x="298" y="175" type="line"/>
      <point x="298" y="161" type="line" smooth="yes"/>
      <point x="298" y="90.2625"/>
      <point x="267.492" y="52.8724"/>
      <point x="209.775" y="52.8724" type="curve" smooth="yes"/>
      <point x="151.779" y="52.8724"/>
      <point x="121" y="96.948"/>
      <point x="121" y="180" type="curve" smooth="yes"/>
      <point x="121" y="349" type="line" smooth="yes"/>
      <point x="121" y="433.668"/>
      <point x="150.539" y="475.952"/>
      <point x="209.685" y="475.952" type="curve" smooth="yes"/>
      <point x="268.545" y="475.952"/>
      <point x="298" y="440.282"/>
      <point x="298" y="369" type="curve" smooth="yes"/>
      <point x="298" y="354" type="line"/>
      <point x="368" y="354" type="line"/>
      <point x="368" y="369" type="line" smooth="yes"/>
      <point x="368" y="466.265"/>
      <point x="323.315" y="525.025"/>
      <point x="241" y="536" type="curve"/>
      <point x="241" y="627" type="line"/>
      <point x="186" y="627" type="line"/>
      <point x="186" y="537" type="line"/>
      <point x="97.0355" y="527.27"/>
      <point x="51" y="465.889"/>
      <point x="51" y="357" type="curve" smooth="yes"/>
      <point x="51" y="172" type="line" smooth="yes"/>
      <point x="51" y="62.6667"/>
      <point x="96" y="3"/>
      <point x="186" y="-7" type="curve"/>
    </contour>
  </outline>
</glyph>
<glyph name="sterling" format="2">
  <advance width="392"/>
  <unicode hex="00A3"/>
  <outline>
    <contour>
      <point x="44" y="0" type="line"/>
      <point x="366" y="0" type="line"/>
      <point x="366" y="68" type="line"/>
      <point x="126" y="68" type="line"/>
      <point x="152.758" y="90.7441"/>
      <point x="165" y="121.821"/>
      <point x="165" y="167" type="curve" smooth="yes"/>
      <point x="165" y="310" type="line"/>
      <point x="285" y="310" type="line"/>
      <point x="285" y="377" type="line"/>
      <point x="165" y="377" type="line"/>
      <point x="165" y="572" type="line" smooth="yes"/>
      <point x="165" y="624"/>
      <point x="185.333" y="650"/>
      <point x="226" y="650" type="curve" smooth="yes"/>
      <point x="267.304" y="650"/>
      <point x="286" y="621.333"/>
      <point x="286" y="558" type="curve"/>
      <point x="357" y="558" type="line"/>
      <point x="357" y="661.268"/>
      <point x="310.382" y="717"/>
      <point x="224" y="717" type="curve" smooth="yes"/>
      <point x="137.516" y="717"/>
      <point x="89" y="659.141"/>
      <point x="89" y="556" type="curve" smooth="yes"/>
      <point x="89" y="377" type="line"/>
      <point x="27" y="377" type="line"/>
      <point x="27" y="310" type="line"/>
      <point x="89" y="310" type="line"/>
      <point x="89" y="168" type="line" smooth="yes"/>
      <point x="89" y="112.252"/>
      <point x="76.4827" y="84.992"/>
      <point x="44" y="70" type="curve"/>
    </contour>
  </outline>
</glyph>
<glyph name="brokenbar" format="2">
  <advance width="272"/>
  <unicode hex="00A6"/>
  <outline>
    <contour>
      <point x="102" y="397" type="line"/>
      <point x="170" y="397" type="line"/>
      <point x="170" y="758" type="line"/>
      <point x="102" y="758" type="line"/>
    </contour>
    <contour>
      <point x="102" y="-85" type="line"/>
      <point x="170" y="-85" type="line"/>
      <point x="170" y="278" type="line"/>
      <point x="102" y="278" type="line"/>
    </contour>
  </outline>
</glyph>
<glyph name="logicalnot" format="2">
  <advance width="430"/>
  <unicode hex="00AC"/>
  <outline>
    <contour>
      <point x="43" y="270" type="line"/>
      <point x="318" y="270" type="line"/>
      <point x="318" y="159" type="line"/>
      <point x="388" y="159" type="line"/>
      <point x="388" y="333" type="line"/>
      <point x="43" y="333" type="line"/>
    </contour>
  </outline>
</glyph>
<glyph name="twosuperior" format="2">
  <advance width="277"/>
  <unicode hex="00B2"/>
  <outline>
    <contour>
      <point x="33" y="440" type="line"/>
      <point x="244" y="440" type="line"/>
      <point x="244" y="504" type="line"/>
      <point x="115" y="504" type="line"/>
      <point x="210" y="652" type="line" smooth="yes"/>
      <point x="235.443" y="691.638"/>
      <point x="244" y="716.05"/>
      <point x="244" y="749" type="curve" smooth="yes"/>
      <point x="244" y="773" type="line" smooth="yes"/>
      <point x="244" y="834.699"/>
      <point x="202.298" y="876"/>
      <point x="140" y="876" type="curve" smooth="yes"/>
      <point x="76.4314" y="876"/>
      <point x="35" y="835.752"/>
      <point x="35" y="774" type="curve" smooth="yes"/>
      <point x="35" y="743" type="line"/>
      <point x="103" y="743" type="line"/>
      <point x="103" y="766" type="line" smooth="yes"/>
      <point x="103" y="797.333"/>
      <point x="114.667" y="813"/>
      <point x="138" y="813" type="curve" smooth="yes"/>
      <point x="160.556" y="813"/>
      <point x="173" y="798.067"/>
      <point x="173" y="771" type="curve" smooth="yes"/>
      <point x="173" y="751" type="line" smooth="yes"/>
      <point x="173" y="726.06"/>
      <point x="167.593" y="709.592"/>
      <point x="151" y="684" type="curve" smooth="yes"/>
      <point x="33" y="502" type="line"/>
    </contour>
  </outline>
</glyph>
<glyph name="threesuperior" format="2">
  <advance width="274"/>
  <unicode hex="00B3"/>
  <outline>
    <contour>
      <point x="31" y="554" type="line"/>
      <point x="31" y="529" type="line" smooth="yes"/>
      <point x="31" y="464.237"/>
      <point x="68.9671" y="427"/>
      <point x="135" y="427" type="curve" smooth="yes"/>
      <point x="199.667" y="427"/>
      <point x="242" y="469.333"/>
      <point x="242" y="534" type="curve" smooth="yes"/>
      <point x="242" y="570" type="line" smooth="yes"/>
      <point x="242" y="619.035"/>
      <point x="228.473" y="644.363"/>
      <point x="195" y="658" type="curve"/>
      <point x="225.969" y="672.811"/>
      <point x="240" y="698.067"/>
      <point x="240" y="739" type="curve" smooth="yes"/>
      <point x="240" y="764" type="line" smooth="yes"/>
      <point x="240" y="829.333"/>
      <point x="200.333" y="869"/>
      <point x="135" y="869" type="curve" smooth="yes"/>
      <point x="71.4224" y="869"/>
      <point x="31" y="829.744"/>
      <point x="31" y="768" type="curve" smooth="yes"/>
      <point x="31" y="742" type="line"/>
      <point x="99" y="742" type="line"/>
      <point x="99" y="765" type="line" smooth="yes"/>
      <point x="99" y="791.61"/>
      <point x="111.285" y="806"/>
      <point x="134" y="806" type="curve" smooth="yes"/>
      <point x="157.333" y="806"/>
      <point x="169" y="791"/>
      <point x="169" y="761" type="curve" smooth="yes"/>
      <point x="169" y="730" type="line" smooth="yes"/>
      <point x="169" y="700"/>
      <point x="156" y="685"/>
      <point x="130" y="685" type="curve" smooth="yes"/>
      <point x="112" y="685" type="line"/>
      <point x="112" y="623" type="line"/>
      <point x="130" y="623" type="line" smooth="yes"/>
      <point x="159.17" y="623"/>
      <point x="171" y="608.862"/>
      <point x="171" y="574" type="curve" smooth="yes"/>
      <point x="171" y="537" type="line" smooth="yes"/>
      <point x="171" y="505.667"/>
      <point x="158.667" y="490"/>
      <point x="134" y="490" type="curve" smooth="yes"/>
      <point x="111.545" y="490"/>
      <point x="98" y="505.426"/>
      <point x="98" y="531" type="curve" smooth="yes"/>
      <point x="98" y="554" type="line"/>
    </contour>
  </outline>
</glyph>
<glyph name="mu" format="2">
  <advance width="422"/>
  <unicode hex="00B5"/>
  <outline>
    <contour>
      <point x="60" y="-158" type="line"/>
      <point x="130" y="-158" type="line"/>
      <point x="130" y="18" type="line"/>
      <point x="147.333" y="0.666666"/>
      <point x="170.333" y="-8"/>
      <point x="199" y="-8" type="curve" smooth="yes"/>
      <point x="241.333" y="-8"/>
      <point x="277.045" y="12.6169"/>
      <point x="296" y="48" type="curve"/>
      <point x="296" y="0" type="line"/>
      <point x="362" y="0" type="line"/>
      <point x="362" y="529" type="line"/>
      <point x="293" y="529" type="line"/>
      <point x="293" y="147" type="line" smooth="yes"/>
      <point x="293" y="90.1545"/>
      <point x="260.589" y="53"/>
      <point x="211" y="53" type="curve" smooth="yes"/>
      <point x="159.582" y="53"/>
      <point x="129" y="88.0569"/>
      <point x="129" y="147" type="curve" smooth="yes"/>
      <point x="129" y="529" type="line"/>
      <point x="60" y="529" type="line"/>
    </contour>
  </outline>
</glyph>
<glyph name="onequarter" format="2">
  <advance width="650"/>
  <unicode hex="00BC"/>
  <outline>
    <contour>
      <point x="138" y="0" type="line"/>
      <point x="203" y="0" type="line"/>
      <point x="457" y="707" type="line"/>
      <point x="392" y="707" type="line"/>
    </contour>
    <contour>
      <point x="85" y="280" type="line"/>
      <point x="158" y="280" type="line"/>
      <point x="158" y="708" type="line"/>
      <point x="85" y="708" type="line"/>
      <point x="22" y="658" type="line"/>
      <point x="22" y="577" type="line"/>
      <point x="85" y="628" type="line"/>
    </contour>
    <contour>
      <point x="385" y="75" type="line"/>
      <point x="522" y="75" type="line"/>
      <point x="522" y="-1" type="line"/>
      <point x="593" y="-1" type="line"/>
      <point x="593" y="75" type="line"/>
      <point x="625" y="75" type="line"/>
      <point x="625" y="139" type="line"/>
      <point x="593" y="139" type="line"/>
      <point x="593" y="237" type="line"/>
      <point x="522" y="237" type="line"/>
      <point x="522" y="139" type="line"/>
      <point x="456" y="139" type="line"/>
      <point x="550" y="427" type="line"/>
      <point x="479" y="427" type="line"/>
      <point x="385" y="139" type="line"/>
    </contour>
  </outline>
</glyph>
<glyph name="AE" format="2">
  <advance width="704"/>
  <unicode hex="00C6"/>
  <anchor x="436" y="760" name="top"/>
  <outline>
    <contour>
      <point x="9" y="0" type="line"/>
      <point x="87" y="0" type="line"/>
      <point x="163" y="176" type="line"/>
      <point x="362" y="176" type="line"/>
      <point x="362" y="0" type="line"/>
      <point x="668" y="0" type="line"/>
      <point x="668" y="67" type="line"/>
      <point x="436" y="67" type="line"/>
      <point x="436" y="326" type="line"/>
      <point x="634" y="326" type="line"/>
      <point x="634" y="393" type="line"/>
      <point x="436" y="393" type="line"/>
      <point x="436" y="640" type="line"/>
      <point x="668" y="640" type="line"/>
      <point x="668" y="707" type="line"/>
      <point x="317" y="707" type="line"/>
    </contour>
    <contour>
      <point x="190" y="242" type="line"/>
      <point x="362" y="642" type="line"/>
      <point x="362" y="242" type="line"/>
    </contour>
  </outline>
  <guideline angle="90" name="h1" x="436" y="0"/>
</glyph>
<glyph name="Eth" format="2">
  <advance width="517"/>
  <unicode hex="00D0"/>
  <outline>
    <component base="D" xOffset="29"/>
    <contour>
      <point x="31" y="326" type="line"/>
      <point x="274" y="326" type="line"/>
      <point x="274" y="392" type="line"/>
      <point x="31" y="392" type="line"/>
    </contour>
  </outline>
</glyph>
<glyph name="Oslash" format="2">
  <advance width="491"/>
  <unicode hex="00D8"/>
  <anchor x="245" y="760" name="top"/>
  <outline>
    <component base="O"/>
    <contour>
      <point x="54" y="-20" type="line"/>
      <point x="109" y="-20" type="line"/>
      <point x="438" y="727" type="line"/>
      <point x="384" y="727" type="line"/>
    </contour>
  </outline>
  <guideline angle="90" name="h1" x="245" y="0"/>
</glyph>
<glyph name="Thorn" format="2">
  <advance width="450"/>
  <unicode hex="00DE"/>
  <outline>
    <contour>
      <point x="61" y="0" type="line"/>
      <point x="135" y="0" type="line"/>
      <point x="135" y="170" type="line"/>
      <point x="241" y="170" type="line" smooth="yes"/>
      <point x="362.333" y="170"/>
      <point x="423" y="237.333"/>
      <point x="423" y="372" type="curve" smooth="yes"/>
      <point x="423" y="510.556"/>
      <point x="363.414" y="578"/>
      <point x="241" y="578" type="curve" smooth="yes"/>
      <point x="135" y="578" type="line"/>
      <point x="135" y="707" type="line"/>
      <point x="61" y="707" type="line"/>
    </contour>
    <contour>
      <point x="135" y="236" type="line"/>
      <point x="135" y="511" type="line"/>
      <point x="237" y="511" type="line" smooth="yes"/>
      <point x="313.863" y="511"/>
      <point x="348" y="468.252"/>
      <point x="348" y="372" type="curve" smooth="yes"/>
      <point x="348" y="278.272"/>
      <point x="313.498" y="236"/>
      <point x="237" y="236" type="curve" smooth="yes"/>
    </contour>
  </outline>
</glyph>
<glyph name="germandbls" format="2">
  <advance width="422"/>
  <unicode hex="00DF"/>
  <outline>
    <contour>
      <point x="60" y="0" type="line"/>
      <point x="131" y="0" type="line"/>
      <point x="131" y="558" type="line" smooth="yes"/>
      <point x="131" y="620.667"/>
      <point x="159" y="652"/>
      <point x="215" y="652" type="curve" smooth="yes"/>
      <point x="270.03" y="652"/>
      <point x="296" y="620.259"/>
      <point x="296" y="553" type="curve" smooth="yes"/>
      <point x="296" y="475.497"/>
      <point x="279.063" y="447"/>
      <point x="233" y="447" type="curve" smooth="yes"/>
      <point x="212" y="447" type="line"/>
      <point x="212" y="385" type="line"/>
      <point x="233" y="385" type="line" smooth="yes"/>
      <point x="289.718" y="385"/>
      <point x="301" y="343.066"/>
      <point x="301" y="225" type="curve" smooth="yes"/>
      <point x="301" y="101.106"/>
      <point x="282.324" y="59"/>
      <point x="234" y="59" type="curve" smooth="yes"/>
      <point x="215" y="59" type="line"/>
      <point x="215" y="-4" type="line"/>
      <point x="243" y="-4" type="line" smooth="yes"/>
      <point x="350.95" y="-4"/>
      <point x="372" y="77.036"/>
      <point x="372" y="225" type="curve" smooth="yes"/>
      <point x="372" y="342.16"/>
      <point x="363.097" y="392.891"/>
      <point x="305" y="423" type="curve"/>
      <point x="351.989" y="448.508"/>
      <point x="367" y="481.194"/>
      <point x="367" y="558" type="curve" smooth="yes"/>
      <point x="367" y="655.466"/>
      <point x="309.148" y="716"/>
      <point x="216" y="716" type="curve" smooth="yes"/>
      <point x="109.529" y="716"/>
      <point x="60" y="658.534"/>
      <point x="60" y="535" type="curve" smooth="yes"/>
    </contour>
  </outline>
</glyph>
<glyph name="divide" format="2">
  <advance width="430"/>
  <unicode hex="00F7"/>
  <outline>
    <contour>
      <point x="216" y="373" type="curve" smooth="yes"/>
      <point x="243.061" y="373"/>
      <point x="264" y="394.375"/>
      <point x="264" y="422" type="curve" smooth="yes"/>
      <point x="264" y="448.667"/>
      <point x="242.667" y="470"/>
      <point x="216" y="470" type="curve" smooth="yes"/>
      <point x="189.056" y="470"/>
      <point x="167" y="448.395"/>
      <point x="167" y="422" type="curve" smooth="yes"/>
      <point x="167" y="394.943"/>
      <point x="188.943" y="373"/>
    </contour>
    <contour>
      <point x="41" y="249" type="line"/>
      <point x="390" y="249" type="line"/>
      <point x="390" y="316" type="line"/>
      <point x="41" y="316" type="line"/>
    </contour>
    <contour>
      <point x="216" y="98" type="curve" smooth="yes"/>
      <point x="243.061" y="98"/>
      <point x="264" y="119.375"/>
      <point x="264" y="147" type="curve" smooth="yes"/>
      <point x="264" y="174.611"/>
      <point x="243.048" y="196"/>
      <point x="216" y="196" type="curve" smooth="yes"/>
      <point x="189.333" y="196"/>
      <point x="167" y="173.667"/>
      <point x="167" y="147" type="curve" smooth="yes"/>
      <point x="167" y="121.086"/>
      <point x="190.086" y="98"/>
    </contour>
  </outline>
</glyph>
<glyph name="dcaron" format="2">
  <advance width="483"/>
  <unicode hex="010F"/>
  <outline>
    <component base="d"/>
    <contour>
      <point x="417" y="562" type="line"/>
      <point x="483" y="618" type="line"/>
      <point x="483" y="707" type="line"/>
      <point x="417" y="707" type="line"/>
    </contour>
  </outline>
</glyph>
<glyph name="Hbar" format="2">
  <advance width="489"/>
  <unicode hex="0126"/>
  <outline>
    <contour>
      <point x="31" y="513" type="line"/>
      <point x="463" y="513" type="line"/>
      <point x="463" y="579" type="line"/>
      <point x="31" y="579" type="line"/>
    </contour>
    <contour>
      <point x="115.64" y="327" type="line"/>
      <point x="373.36" y="327" type="line"/>
      <point x="373.36" y="393" type="line"/>
      <point x="115.64" y="393" type="line"/>
    </contour>
    <contour>
      <point x="353" y="0" type="line"/>
      <point x="428" y="0" type="line"/>
      <point x="428" y="707" type="line"/>
      <point x="353" y="707" type="line"/>
    </contour>
    <contour>
      <point x="61" y="0" type="line"/>
      <point x="136" y="0" type="line"/>
      <point x="136" y="707" type="line"/>
      <point x="61" y="707" type="line"/>
    </contour>
  </outline>
</glyph>
<glyph name="IJ" format="2">
  <advance width="491"/>
  <unicode hex="0132"/>
  <outline>
    <contour>
      <point x="69" y="119" type="line"/>
      <point x="94.1624" y="39.9183"/>
      <point x="160.946" y="-8"/>
      <point x="246" y="-8" type="curve" smooth="yes"/>
      <point x="356.244" y="-8"/>
      <point x="430" y="67.3595"/>
      <point x="430" y="180" type="curve" smooth="yes"/>
      <point x="430" y="707" type="line"/>
      <point x="355" y="707" type="line"/>
      <point x="355" y="184" type="line" smooth="yes"/>
      <point x="355" y="105.925"/>
      <point x="314.081" y="59"/>
      <point x="246" y="59" type="curve" smooth="yes"/>
      <point x="199.967" y="59"/>
      <point x="165.365" y="80.1849"/>
      <point x="148" y="119" type="curve"/>
    </contour>
    <contour>
      <point x="61" y="254" type="line"/>
      <point x="136" y="254" type="line"/>
      <point x="136" y="707" type="line"/>
      <point x="61" y="707" type="line"/>
    </contour>
  </outline>
</glyph>
<glyph name="ij" format="2">
  <advance width="410"/>
  <unicode hex="0133"/>
  <outline>
    <contour>
      <point x="60" y="613" type="line"/>
      <point x="130" y="613" type="line"/>
      <point x="130" y="706" type="line"/>
      <point x="60" y="706" type="line"/>
    </contour>
    <contour>
      <point x="281" y="613" type="line"/>
      <point x="350" y="613" type="line"/>
      <point x="350" y="706" type="line"/>
      <point x="281" y="706" type="line"/>
    </contour>
    <contour>
      <point x="66" y="-32" type="line"/>
      <point x="67.9734" y="-112.911"/>
      <point x="123.043" y="-166"/>
      <point x="205" y="-166" type="curve" smooth="yes"/>
      <point x="308.465" y="-166"/>
      <point x="350" y="-113.867"/>
      <point x="350" y="16" type="curve" smooth="yes"/>
      <point x="350" y="529" type="line"/>
      <point x="281" y="529" type="line"/>
      <point x="281" y="220" type="line" smooth="yes"/>
      <point x="281" y="136.244"/>
      <point x="259.809" y="105"/>
      <point x="203" y="105" type="curve" smooth="yes"/>
      <point x="147.435" y="105"/>
      <point x="130" y="132.466"/>
      <point x="130" y="220" type="curve" smooth="yes"/>
      <point x="130" y="529" type="line"/>
      <point x="60" y="529" type="line"/>
      <point x="60" y="212" type="line" smooth="yes"/>
      <point x="60" y="121.3"/>
      <point x="87.4294" y="43"/>
      <point x="189" y="43" type="curve" smooth="yes"/>
      <point x="224.595" y="43"/>
      <point x="268.458" y="64.455"/>
      <point x="281" y="88" type="curve"/>
      <point x="281" y="10" type="line" smooth="yes"/>
      <point x="281" y="-74.1382"/>
      <point x="260.604" y="-105"/>
      <point x="205" y="-105" type="curve" smooth="yes"/>
      <point x="158.308" y="-105"/>
      <point x="135.203" y="-81.5742"/>
      <point x="133" y="-32" type="curve"/>
    </contour>
  </outline>
</glyph>
<glyph name="Lcaron" format="2">
  <advance width="400"/>
  <unicode hex="013D"/>
  <outline>
    <component base="L"/>
    <contour>
      <point x="207" y="562" type="line"/>
      <point x="273" y="618" type="line"/>
      <point x="273" y="707" type="line"/>
      <point x="207" y="707" type="line"/>
    </contour>
  </outline>
</glyph>
<glyph name="oe" format="2">
  <advance width="665"/>
  <unicode hex="0153"/>
  <outline>
    <contour>
      <point x="368" y="245" type="line"/>
      <point x="614" y="245" type="line"/>
      <point x="614" y="351" type="line" smooth="yes"/>
      <point x="614" y="470.722"/>
      <point x="557.155" y="538"/>
      <point x="456" y="538" type="curve" smooth="yes"/>
      <point x="401.996" y="538"/>
      <point x="361.333" y="519"/>
      <point x="334" y="483" type="curve"/>
      <point x="308.667" y="519.667"/>
      <point x="267.667" y="538"/>
      <point x="211" y="538" type="curve" smooth="yes"/>
      <point x="105.527" y="538"/>
      <point x="51" y="476.317"/>
      <point x="51" y="357" type="curve" smooth="yes"/>
      <point x="51" y="172" type="line" smooth="yes"/>
      <point x="51" y="53"/>
      <point x="105.222" y="-8"/>
      <point x="211" y="-8" type="curve" smooth="yes"/>
      <point x="266.333" y="-8"/>
      <point x="307.333" y="9.66667"/>
      <point x="334" y="45" type="curve"/>
      <point x="360.667" y="9.66667"/>
      <point x="402" y="-8"/>
      <point x="458" y="-8" type="curve" smooth="yes"/>
      <point x="558.024" y="-8"/>
      <point x="613" y="51.2323"/>
      <point x="613" y="159" type="curve" smooth="yes"/>
      <point x="613" y="162" type="line"/>
      <point x="545" y="162" type="line"/>
      <point x="545" y="158" type="line" smooth="yes"/>
      <point x="545" y="87.9137"/>
      <point x="516.201" y="52"/>
      <point x="460" y="52" type="curve" smooth="yes"/>
      <point x="397.385" y="52"/>
      <point x="368" y="93.2029"/>
      <point x="368" y="181" type="curve" smooth="yes"/>
    </contour>
    <contour>
      <point x="210" y="54" type="curve" smooth="yes"/>
      <point x="148.841" y="54"/>
      <point x="121" y="93.4157"/>
      <point x="121" y="180" type="curve" smooth="yes"/>
      <point x="121" y="349" type="line" smooth="yes"/>
      <point x="121" y="435.584"/>
      <point x="148.841" y="475"/>
      <point x="210" y="475" type="curve" smooth="yes"/>
      <point x="270.328" y="475"/>
      <point x="298" y="435.379"/>
      <point x="298" y="349" type="curve" smooth="yes"/>
      <point x="298" y="180" type="line" smooth="yes"/>
      <point x="298" y="95.6747"/>
      <point x="268.894" y="54"/>
    </contour>
    <contour>
      <point x="368" y="298" type="line"/>
      <point x="368" y="349" type="line" smooth="yes"/>
      <point x="368" y="434.617"/>
      <point x="396.524" y="475"/>
      <point x="457" y="475" type="curve" smooth="yes"/>
      <point x="517.366" y="475"/>
      <point x="545" y="436.061"/>
      <point x="545" y="351" type="curve" smooth="yes"/>
      <point x="545" y="298" type="line"/>
    </contour>
  </outline>
</glyph>
<glyph name="Tbar" format="2">
  <advance width="376"/>
  <unicode hex="0166"/>
  <outline>
    <component base="T"/>
    <contour>
      <point x="68" y="325" type="line"/>
      <point x="305" y="325" type="line"/>
      <point x="305" y="388" type="line"/>
      <point x="68" y="388" type="line"/>
    </contour>
  </outline>
</glyph>
<glyph name="florin" format="2">
  <advance width="392"/>
  <unicode hex="0192"/>
  <outline>
    <contour>
      <point x="10" y="-156" type="line"/>
      <point x="30" y="-156" type="line" smooth="yes"/>
      <point x="128" y="-156"/>
      <point x="172.738" y="-109.561"/>
      <point x="189" y="3" type="curve" smooth="yes"/>
      <point x="240" y="356" type="line"/>
      <point x="337" y="356" type="line"/>
      <point x="337" y="422" type="line"/>
      <point x="249" y="422" type="line"/>
      <point x="266" y="548" type="line" smooth="yes"/>
      <point x="276.038" y="622.397"/>
      <point x="294.198" y="640"/>
      <point x="351" y="640" type="curve" smooth="yes"/>
      <point x="382" y="640" type="line"/>
      <point x="382" y="707" type="line"/>
      <point x="351" y="707" type="line" smooth="yes"/>
      <point x="252.966" y="707"/>
      <point x="206.139" y="662.097"/>
      <point x="191" y="549" type="curve" smooth="yes"/>
      <point x="174" y="422" type="line"/>
      <point x="90" y="422" type="line"/>
      <point x="90" y="356" type="line"/>
      <point x="165" y="356" type="line"/>
      <point x="116" y="5" type="line" smooth="yes"/>
      <point x="105.362" y="-71.2009"/>
      <point x="88.065" y="-89"/>
      <point x="31" y="-89" type="curve" smooth="yes"/>
      <point x="10" y="-89" type="line"/>
    </contour>
  </outline>
</glyph>
<glyph name="Lbar" format="2">
  <advance width="400"/>
  <unicode hex="023D"/>
  <outline>
    <component base="L"/>
    <contour>
      <point x="11" y="363" type="line"/>
      <point x="293" y="363" type="line"/>
      <point x="293" y="429" type="line"/>
      <point x="11" y="429" type="line"/>
    </contour>
  </outline>
</glyph>
<glyph name="obarred" format="2">
  <advance width="418"/>
  <unicode hex="0275"/>
  <outline>
    <component base="o"/>
    <contour>
      <point x="67" y="233" type="line"/>
      <point x="349" y="233" type="line"/>
      <point x="349" y="299" type="line"/>
      <point x="67" y="299" type="line"/>
    </contour>
  </outline>
</glyph>
<glyph name="ring" format="2">
  <advance width="524"/>
  <unicode hex="02DA"/>
  <outline>
    <contour>
      <point x="261" y="569" type="curve" smooth="yes"/>
      <point x="313.952" y="569"/>
      <point x="353" y="607.623"/>
      <point x="353" y="660" type="curve" smooth="yes"/>
      <point x="353" y="712.667"/>
      <point x="313.667" y="752"/>
      <point x="261" y="752" type="curve" smooth="yes"/>
      <point x="209.565" y="752"/>
      <point x="171" y="712.578"/>
      <point x="171" y="660" type="curve" smooth="yes"/>
      <point x="171" y="609.006"/>
      <point x="210.566" y="569"/>
    </contour>
    <contour>
      <point x="261" y="609" type="curve" smooth="yes"/>
      <point x="232.268" y="609"/>
      <point x="212" y="630.095"/>
      <point x="212" y="660" type="curve" smooth="yes"/>
      <point x="212" y="691.197"/>
      <point x="232.157" y="713"/>
      <point x="261" y="713" type="curve" smooth="yes"/>
      <point x="290.799" y="713"/>
      <point x="311" y="691.587"/>
      <point x="311" y="660" type="curve" smooth="yes"/>
      <point x="311" y="629.659"/>
      <point x="290.746" y="609"/>
    </contour>
  </outline>
</glyph>
<glyph name="uni0301" format="2">
  <unicode hex="0301"/>
  <anchor x="0" y="590" name="_top"/>
  <outline>
    <contour>
      <point x="-66.5" y="590" type="line"/>
      <point x="-8.5" y="590" type="line"/>
      <point x="102.5" y="722" type="line"/>
      <point x="26.5" y="722" type="line"/>
    </contour>
  </outline>
  <guideline angle="90" name="h1" x="0" y="0"/>
</glyph>
<glyph name="uni0303" format="2">
  <unicode hex="0303"/>
  <anchor x="0" y="590" name="_top"/>
  <outline>
    <contour>
      <point x="-110.5" y="583" type="line"/>
      <point x="-84.6819" y="612.895"/>
      <point x="-70.4402" y="622"/>
      <point x="-49.5" y="622" type="curve" smooth="yes"/>
      <point x="-18.4636" y="622"/>
      <point x="1.75154" y="586"/>
      <point x="47.5" y="586" type="curve" smooth="yes"/>
      <point x="72.9667" y="586"/>
      <point x="88.1117" y="594.414"/>
      <point x="110.5" y="621" type="curve"/>
      <point x="110.5" y="692" type="line"/>
      <point x="81.7821" y="660.41"/>
      <point x="72.1667" y="654"/>
      <point x="53.5" y="654" type="curve" smooth="yes"/>
      <point x="15.3215" y="654"/>
      <point x="-3.82474" y="691"/>
      <point x="-46.5" y="691" type="curve" smooth="yes"/>
      <point x="-70.3286" y="691"/>
      <point x="-84.8823" y="683.041"/>
      <point x="-110.5" y="656" type="curve"/>
    </contour>
  </outline>
  <guideline angle="90" name="h1" x="0" y="0"/>
</glyph>
<glyph name="uni0308" format="2">
  <unicode hex="0308"/>
  <anchor x="0" y="590" name="_top"/>
  <outline>
    <contour>
      <point x="-116.5" y="593" type="line"/>
      <point x="-39.5" y="593" type="line"/>
      <point x="-39.5" y="681" type="line"/>
      <point x="-116.5" y="681" type="line"/>
    </contour>
    <contour>
      <point x="39.5" y="593" type="line"/>
      <point x="116.5" y="593" type="line"/>
      <point x="116.5" y="681" type="line"/>
      <point x="39.5" y="681" type="line"/>
    </contour>
  </outline>
  <guideline angle="90" name="h1" x="0" y="0"/>
</glyph>
<glyph name="uni030A" format="2">
  <unicode hex="030A"/>
  <anchor x="0" y="569" name="_t.ring"/>
  <outline>
    <contour>
      <point x="-1" y="569" type="curve" smooth="yes"/>
      <point x="51.9524" y="569"/>
      <point x="91" y="607.623"/>
      <point x="91" y="660" type="curve" smooth="yes"/>
      <point x="91" y="712.667"/>
      <point x="51.6667" y="752"/>
      <point x="-1" y="752" type="curve" smooth="yes"/>
      <point x="-52.4348" y="752"/>
      <point x="-91" y="712.578"/>
      <point x="-91" y="660" type="curve" smooth="yes"/>
      <point x="-91" y="609.006"/>
      <point x="-51.4338" y="569"/>
    </contour>
    <contour>
      <point x="-1" y="609" type="curve" smooth="yes"/>
      <point x="-29.732" y="609"/>
      <point x="-50" y="630.095"/>
      <point x="-50" y="660" type="curve" smooth="yes"/>
      <point x="-50" y="691.197"/>
      <point x="-29.8428" y="713"/>
      <point x="-1" y="713" type="curve" smooth="yes"/>
      <point x="28.7987" y="713"/>
      <point x="49" y="691.587"/>
      <point x="49" y="660" type="curve" smooth="yes"/>
      <point x="49" y="629.659"/>
      <point x="28.7458" y="609"/>
    </contour>
  </outline>
</glyph>
<glyph name="uni0323" format="2">
  <unicode hex="0323"/>
  <anchor x="0" y="-86" name="_bottom"/>
  <anchor x="0" y="-132" name="_dot"/>
  <outline>
    <contour>
      <point x="-36" y="-178" type="line"/>
      <point x="36" y="-178" type="line"/>
      <point x="36" y="-86" type="line"/>
      <point x="-36" y="-86" type="line"/>
    </contour>
  </outline>
</glyph>
<glyph name="Djecyr" format="2">
  <advance width="558"/>
  <unicode hex="0402"/>
  <anchor x="188" y="-86" name="bottom"/>
  <anchor x="170.5" y="760" name="top"/>
  <anchor x="156" y="0" name="b.cedilla"/>
  <outline>
    <contour>
      <point x="152" y="0" type="line"/>
      <point x="225" y="0" type="line"/>
      <point x="225" y="640" type="line"/>
      <point x="371" y="640" type="line"/>
      <point x="371" y="707" type="line"/>
      <point x="6" y="707" type="line"/>
      <point x="6" y="640" type="line"/>
      <point x="152" y="640" type="line"/>
    </contour>
    <contour>
      <point x="286.166" y="0" type="line"/>
      <point x="324" y="0" type="line" smooth="yes"/>
      <point x="446.48" y="0"/>
      <point x="505" y="66.6028"/>
      <point x="505" y="206" type="curve" smooth="yes"/>
      <point x="505" y="340.667"/>
      <point x="444.667" y="408"/>
      <point x="324" y="408" type="curve" smooth="yes"/>
      <point x="194.82" y="408" type="line"/>
      <point x="194.82" y="341" type="line"/>
      <point x="320" y="341" type="line" smooth="yes"/>
      <point x="396.42" y="341"/>
      <point x="431" y="298.943"/>
      <point x="431" y="206" type="curve" smooth="yes"/>
      <point x="431" y="109.167"/>
      <point x="397.462" y="67.6374"/>
      <point x="320" y="67" type="curve" smooth="yes"/>
      <point x="286.166" y="66.7216" type="line"/>
    </contour>
  </outline>
</glyph>
<glyph name="Ljecyr" format="2">
  <advance width="789"/>
  <unicode hex="0409"/>
  <outline>
    <component base="Elcyr"/>
    <contour>
      <point x="425.82" y="0" type="line"/>
      <point x="555" y="0" type="line" smooth="yes"/>
      <point x="677.48" y="0"/>
      <point x="736" y="66.6028"/>
      <point x="736" y="206" type="curve" smooth="yes"/>
      <point x="736" y="340.667"/>
      <point x="675.667" y="408"/>
      <point x="555" y="408" type="curve" smooth="yes"/>
      <point x="425.82" y="408" type="line"/>
      <point x="425.82" y="341" type="line"/>
      <point x="551" y="341" type="line" smooth="yes"/>
      <point x="627.42" y="341"/>
      <point x="662" y="298.943"/>
      <point x="662" y="206" type="curve" smooth="yes"/>
      <point x="662" y="109.167"/>
      <point x="628.464" y="67.1723"/>
      <point x="551" y="67" type="curve" smooth="yes"/>
      <point x="425.82" y="66.7216" type="line"/>
    </contour>
  </outline>
</glyph>
<glyph name="Tshecyr" format="2">
  <advance width="569"/>
  <unicode hex="040B"/>
  <outline>
    <contour>
      <point x="152" y="0" type="line"/>
      <point x="225" y="0" type="line"/>
      <point x="225" y="640" type="line"/>
      <point x="371" y="640" type="line"/>
      <point x="371" y="707" type="line"/>
      <point x="6" y="707" type="line"/>
      <point x="6" y="640" type="line"/>
      <point x="152" y="640" type="line"/>
    </contour>
    <contour>
      <point x="516" y="0" type="line"/>
      <point x="516" y="206" type="line" smooth="yes"/>
      <point x="516" y="340.667"/>
      <point x="455.667" y="428"/>
      <point x="335" y="428" type="curve" smooth="yes"/>
      <point x="298.766" y="428"/>
      <point x="261.433" y="422"/>
      <point x="225.199" y="408" type="curve"/>
      <point x="205.82" y="408" type="line"/>
      <point x="205.82" y="341" type="line"/>
      <point x="225.199" y="341" type="line"/>
      <point x="260.113" y="355"/>
      <point x="296.086" y="361"/>
      <point x="331" y="361" type="curve" smooth="yes"/>
      <point x="407.42" y="361"/>
      <point x="442" y="298.943"/>
      <point x="442" y="206" type="curve" smooth="yes"/>
      <point x="442" y="-0.111282" type="line"/>
    </contour>
  </outline>
</glyph>
<glyph name="Becyr" format="2">
  <advance width="479"/>
  <unicode hex="0411"/>
  <outline>
    <contour>
      <point x="115.82" y="0" type="line"/>
      <point x="245" y="0" type="line" smooth="yes"/>
      <point x="367.48" y="0"/>
      <point x="426" y="66.6028"/>
      <point x="426" y="206" type="curve" smooth="yes"/>
      <point x="426" y="340.667"/>
      <point x="365.667" y="408"/>
      <point x="245" y="408" type="curve" smooth="yes"/>
      <point x="115.82" y="408" type="line"/>
      <point x="115.82" y="341" type="line"/>
      <point x="241" y="341" type="line" smooth="yes"/>
      <point x="317.42" y="341"/>
      <point x="352" y="298.943"/>
      <point x="352" y="206" type="curve" smooth="yes"/>
      <point x="352" y="109.167"/>
      <point x="318.464" y="67.1723"/>
      <point x="241" y="67" type="curve" smooth="yes"/>
      <point x="115.82" y="66.7216" type="line"/>
    </contour>
    <contour>
      <point x="115.82" y="640" type="line"/>
      <point x="376" y="640" type="line"/>
      <point x="376" y="707" type="line"/>
      <point x="115.82" y="707" type="line"/>
    </contour>
    <contour>
      <point x="61" y="0" type="line"/>
      <point x="136" y="0" type="line"/>
      <point x="136" y="707.034" type="line"/>
      <point x="61" y="707" type="line"/>
    </contour>
  </outline>
</glyph>
<glyph name="Decyr" format="2">
  <advance width="574"/>
  <unicode hex="0414"/>
  <outline>
    <contour>
      <point x="369.27" y="0" type="line"/>
      <point x="488.4" y="0" type="line"/>
      <point x="488.4" y="-170" type="line"/>
      <point x="563.4" y="-170" type="line"/>
      <point x="563.4" y="66.73" type="line"/>
      <point x="369.27" y="67" type="line"/>
    </contour>
    <contour>
      <point x="103.243" y="0" type="line"/>
      <point x="191.596" y="117.961"/>
      <point x="228.481" y="276.587"/>
      <point x="238.439" y="419.665" type="curve" smooth="yes"/>
      <point x="258.439" y="707.034" type="line"/>
      <point x="183.439" y="707" type="line"/>
      <point x="163.439" y="455.096" type="line" smooth="yes"/>
      <point x="152.991" y="323.504"/>
      <point x="131.983" y="188.23"/>
      <point x="66.4956" y="67.002" type="curve"/>
    </contour>
    <contour>
      <point x="429.375" y="0" type="line"/>
      <point x="504.375" y="0" type="line"/>
      <point x="504.375" y="707.034" type="line"/>
      <point x="429.375" y="707" type="line"/>
    </contour>
    <contour>
      <point x="219.166" y="639.607" type="line"/>
      <point x="449.346" y="639.607" type="line"/>
      <point x="449.346" y="706.607" type="line"/>
      <point x="219.166" y="706.607" type="line"/>
    </contour>
    <contour>
      <point x="199.166" y="0" type="line"/>
      <point x="389.346" y="0" type="line"/>
      <point x="389.346" y="67" type="line"/>
      <point x="199.166" y="67" type="line"/>
    </contour>
    <contour>
      <point x="10" y="-170" type="line"/>
      <point x="85" y="-170" type="line"/>
      <point x="85" y="0" type="line"/>
      <point x="218.7" y="0" type="line"/>
      <point x="218.7" y="67" type="line"/>
      <point x="10" y="66.7" type="line"/>
    </contour>
  </outline>
</glyph>
<glyph name="Kacyr" format="2">
  <advance width="472"/>
  <unicode hex="041A"/>
  <anchor x="236" y="760" name="top"/>
  <outline>
    <contour>
      <point x="115.64" y="327.102" type="line"/>
      <point x="241.313" y="327.099" type="line"/>
      <point x="241.71" y="392.866" type="line"/>
      <point x="115.64" y="392.866" type="line"/>
    </contour>
    <contour>
      <point x="61" y="0" type="line"/>
      <point x="136" y="0" type="line"/>
      <point x="136" y="707" type="line"/>
      <point x="61" y="707" type="line"/>
    </contour>
    <contour>
      <point x="384" y="0" type="line"/>
      <point x="466" y="0" type="line"/>
      <point x="252.48" y="392.866" type="line"/>
      <point x="199.232" y="335.112" type="line"/>
    </contour>
    <contour>
      <point x="198.966" y="340.571" type="line"/>
      <point x="257.097" y="340.571" type="line"/>
      <point x="441" y="707" type="line"/>
      <point x="362" y="707" type="line"/>
      <point x="199" y="369.948" type="line"/>
    </contour>
  </outline>
  <guideline angle="90" name="h1" x="236" y="0"/>
</glyph>
<glyph name="Pecyr" format="2">
  <advance width="493"/>
  <unicode hex="041F"/>
  <outline>
    <contour>
      <point x="115.82" y="640" type="line"/>
      <point x="376" y="640" type="line"/>
      <point x="376" y="707" type="line"/>
      <point x="115.82" y="707" type="line"/>
    </contour>
    <contour>
      <point x="61" y="0" type="line"/>
      <point x="136" y="0" type="line"/>
      <point x="136" y="707.034" type="line"/>
      <point x="61" y="707" type="line"/>
    </contour>
    <contour>
      <point x="356.804" y="-0.0337" type="line"/>
      <point x="431.804" y="-0.0337" type="line"/>
      <point x="431.804" y="707" type="line"/>
      <point x="356.804" y="706.966" type="line"/>
    </contour>
  </outline>
</glyph>
<glyph name="Ucyr" format="2">
  <advance width="401"/>
  <unicode hex="0423"/>
  <anchor x="200" y="760" name="top"/>
  <outline>
    <contour>
      <point x="78.0173" y="0" type="line"/>
      <point x="84.6795" y="0" type="line" smooth="yes"/>
      <point x="144.663" y="0"/>
      <point x="199.611" y="43.7068"/>
      <point x="220" y="114" type="curve" smooth="yes"/>
      <point x="392" y="707" type="line"/>
      <point x="310" y="707" type="line"/>
      <point x="188.371" y="248.836" type="line"/>
      <point x="195.371" y="262.836" type="line"/>
      <point x="149" y="129" type="line" smooth="yes"/>
      <point x="136.607" y="93.2318"/>
      <point x="110.98" y="72"/>
      <point x="85.6795" y="72" type="curve" smooth="yes"/>
      <point x="78.0173" y="72" type="line"/>
    </contour>
    <contour>
      <point x="171.28" y="119.629" type="line"/>
      <point x="215.28" y="218.629" type="line"/>
      <point x="91" y="707" type="line"/>
      <point x="9" y="707" type="line"/>
    </contour>
  </outline>
  <guideline angle="90" name="h1" x="200" y="0"/>
</glyph>
<glyph name="Efcyr" format="2">
  <advance width="549"/>
  <unicode hex="0424"/>
  <anchor x="275" y="760" name="top"/>
  <outline>
    <contour>
      <point x="246" y="119" type="line"/>
      <point x="167.331" y="119"/>
      <point x="128" y="168.333"/>
      <point x="128" y="265" type="curve" smooth="yes"/>
      <point x="128" y="434" type="line" smooth="yes"/>
      <point x="128" y="537.333"/>
      <point x="166.823" y="588"/>
      <point x="246" y="588" type="curve"/>
      <point x="246" y="656" type="line"/>
      <point x="123.107" y="656"/>
      <point x="53" y="578.615"/>
      <point x="53" y="441" type="curve" smooth="yes"/>
      <point x="53" y="266" type="line" smooth="yes"/>
      <point x="53" y="130.981"/>
      <point x="124.861" y="52"/>
      <point x="246" y="52" type="curve"/>
    </contour>
    <contour>
      <point x="237" y="0" type="line"/>
      <point x="312" y="0" type="line"/>
      <point x="312" y="707" type="line"/>
      <point x="237" y="707" type="line"/>
    </contour>
    <contour>
      <point x="306" y="52" type="line"/>
      <point x="426.405" y="52"/>
      <point x="496" y="131.096"/>
      <point x="496" y="266" type="curve" smooth="yes"/>
      <point x="496" y="441" type="line" smooth="yes"/>
      <point x="496" y="578.288"/>
      <point x="427.963" y="656"/>
      <point x="306" y="656" type="curve"/>
      <point x="306" y="588" type="line"/>
      <point x="382.165" y="588"/>
      <point x="421" y="535.994"/>
      <point x="421" y="434" type="curve" smooth="yes"/>
      <point x="421" y="265" type="line" smooth="yes"/>
      <point x="421" y="170.948"/>
      <point x="380.082" y="119"/>
      <point x="306" y="119" type="curve"/>
    </contour>
  </outline>
  <guideline angle="90" name="h1" x="275" y="0"/>
</glyph>
<glyph name="Hardcyr" format="2">
  <advance width="589"/>
  <unicode hex="042A"/>
  <outline>
    <contour>
      <point x="225.82" y="0" type="line"/>
      <point x="355" y="0" type="line" smooth="yes"/>
      <point x="477.48" y="0"/>
      <point x="536" y="66.6028"/>
      <point x="536" y="206" type="curve" smooth="yes"/>
      <point x="536" y="340.667"/>
      <point x="475.667" y="408"/>
      <point x="355" y="408" type="curve" smooth="yes"/>
      <point x="225.82" y="408" type="line"/>
      <point x="225.82" y="341" type="line"/>
      <point x="351" y="341" type="line" smooth="yes"/>
      <point x="427.42" y="341"/>
      <point x="462" y="298.943"/>
      <point x="462" y="206" type="curve" smooth="yes"/>
      <point x="462" y="109.167"/>
      <point x="428.464" y="67.1723"/>
      <point x="351" y="67" type="curve" smooth="yes"/>
      <point x="225.82" y="66.7216" type="line"/>
    </contour>
    <contour>
      <point x="171" y="0" type="line"/>
      <point x="246" y="-0.0413" type="line"/>
      <point x="246" y="707" type="line"/>
      <point x="171" y="707" type="line"/>
    </contour>
    <contour>
      <point x="-0.1388" y="640" type="line"/>
      <point x="210.041" y="640" type="line"/>
      <point x="210.041" y="707" type="line"/>
      <point x="-0.1388" y="707" type="line"/>
    </contour>
  </outline>
</glyph>
<glyph name="tsecyr" format="2">
  <advance width="433"/>
  <unicode hex="0446"/>
  <outline>
    <contour>
      <point x="295" y="0" type="line"/>
      <point x="364" y="0" type="line"/>
      <point x="364" y="529" type="line"/>
      <point x="295" y="529" type="line"/>
    </contour>
    <contour>
      <point x="60" y="0" type="line"/>
      <point x="129" y="0" type="line"/>
      <point x="129" y="529" type="line"/>
      <point x="60" y="529" type="line"/>
    </contour>
    <contour>
      <point x="109" y="-0.4073" type="line"/>
      <point x="315.243" y="-0.4073" type="line"/>
      <point x="315.243" y="62.5927" type="line"/>
      <point x="109" y="62.5927" type="line"/>
    </contour>
    <contour>
      <point x="354" y="-170" type="line"/>
      <point x="423" y="-170" type="line"/>
      <point x="423" y="63" type="line"/>
      <point x="333" y="63" type="line"/>
      <point x="333" y="0" type="line"/>
      <point x="354" y="0" type="line"/>
    </contour>
  </outline>
</glyph>
<glyph name="hardcyr" format="2">
  <advance width="494"/>
  <unicode hex="044A"/>
  <outline>
    <contour>
      <point x="140" y="0" type="line"/>
      <point x="209" y="0" type="line"/>
      <point x="209" y="529" type="line"/>
      <point x="140" y="529" type="line"/>
    </contour>
    <contour>
      <point x="180.485" y="466" type="line"/>
      <point x="180.485" y="529" type="line"/>
      <point x="0" y="529" type="line"/>
      <point x="0" y="466" type="line"/>
    </contour>
    <contour>
      <point x="189" y="0" type="line"/>
      <point x="283" y="0" type="line" smooth="yes"/>
      <point x="384.503" y="0"/>
      <point x="444" y="55.956"/>
      <point x="444" y="162.504" type="curve" smooth="yes"/>
      <point x="444" y="266.608"/>
      <point x="398.89" y="313"/>
      <point x="298" y="313" type="curve" smooth="yes"/>
      <point x="189" y="313" type="line"/>
      <point x="189" y="250" type="line"/>
      <point x="298" y="250" type="line" smooth="yes"/>
      <point x="344.231" y="250"/>
      <point x="375" y="214.194"/>
      <point x="375" y="160.396" type="curve" smooth="yes"/>
      <point x="375" y="102.666"/>
      <point x="343.64" y="63"/>
      <point x="298" y="63" type="curve" smooth="yes"/>
      <point x="189" y="63" type="line"/>
    </contour>
  </outline>
</glyph>
<glyph name="yucyr" format="2">
  <advance width="558"/>
  <unicode hex="044E"/>
  <anchor x="323" y="590" name="top"/>
  <outline>
    <component base="dotlessi" xOffset="-7"/>
    <component base="o" xOffset="140"/>
    <contour>
      <point x="109" y="250" type="line"/>
      <point x="226" y="250" type="line"/>
      <point x="226" y="313" type="line"/>
      <point x="109" y="313" type="line"/>
    </contour>
  </outline>
</glyph>
<glyph name="geupcyr" format="2">
  <advance width="350"/>
  <unicode hex="0491"/>
  <outline>
    <contour>
      <point x="330" y="466" type="line"/>
      <point x="330" y="529" type="line"/>
      <point x="60" y="529" type="line"/>
      <point x="60" y="465.996" type="line"/>
    </contour>
    <contour>
      <point x="60" y="0" type="line"/>
      <point x="130" y="0" type="line"/>
      <point x="130" y="529" type="line"/>
      <point x="60" y="529" type="line"/>
    </contour>
    <contour>
      <point x="260" y="529" type="line"/>
      <point x="330" y="529" type="line"/>
      <point x="330" y="669.896" type="line"/>
      <point x="260" y="669.896" type="line"/>
    </contour>
  </outline>
</glyph>
<glyph name="Zdotbelow" format="2">
  <advance width="394"/>
  <unicode hex="1E92"/>
  <outline>
    <contour>
      <point x="31" y="0" type="line"/>
      <point x="367" y="0" type="line"/>
      <point x="367" y="67" type="line"/>
      <point x="103" y="67" type="line"/>
      <point x="359" y="640" type="line"/>
      <point x="359" y="707" type="line"/>
      <point x="42" y="707" type="line"/>
      <point x="42" y="640" type="line"/>
      <point x="286" y="640" type="line"/>
      <point x="31" y="67" type="line"/>
    </contour>
    <contour>
      <point x="161" y="-178" type="line"/>
      <point x="233" y="-178" type="line"/>
      <point x="233" y="-86" type="line"/>
      <point x="161" y="-86" type="line"/>
    </contour>
  </outline>
</glyph>
<glyph name="zdotbelow" format="2">
  <advance width="385"/>
  <unicode hex="1E93"/>
  <outline>
    <contour>
      <point x="51" y="0" type="line"/>
      <point x="334" y="0" type="line"/>
      <point x="334" y="63" type="line"/>
      <point x="126" y="63" type="line"/>
      <point x="334" y="466" type="line"/>
      <point x="334" y="529" type="line"/>
      <point x="51" y="529" type="line"/>
      <point x="51" y="466" type="line"/>
      <point x="259" y="466" type="line"/>
      <point x="51" y="63" type="line"/>
    </contour>
    <contour>
      <point x="156" y="-178" type="line"/>
      <point x="228" y="-178" type="line"/>
      <point x="228" y="-86" type="line"/>
      <point x="156" y="-86" type="line"/>
    </contour>
  </outline>
</glyph>
<glyph name="perthousand" format="2">
  <advance width="993"/>
  <unicode hex="2030"/>
  <outline>
    <contour>
      <point x="196" y="0" type="line"/>
      <point x="260" y="0" type="line"/>
      <point x="514" y="707" type="line"/>
      <point x="450" y="707" type="line"/>
    </contour>
    <contour>
      <point x="141" y="270" type="curve" smooth="yes"/>
      <point x="214.887" y="270"/>
      <point x="249" y="311.062"/>
      <point x="249" y="400" type="curve" smooth="yes"/>
      <point x="249" y="586" type="line" smooth="yes"/>
      <point x="249" y="672.123"/>
      <point x="213.667" y="714"/>
      <point x="141" y="714" type="curve" smooth="yes"/>
      <point x="68.776" y="714"/>
      <point x="34" y="672.399"/>
      <point x="34" y="586" type="curve" smooth="yes"/>
      <point x="34" y="400" type="line" smooth="yes"/>
      <point x="34" y="313.185"/>
      <point x="69.5448" y="270"/>
    </contour>
    <contour>
      <point x="141" y="334" type="curve" smooth="yes"/>
      <point x="114.212" y="334"/>
      <point x="104" y="352.216"/>
      <point x="104" y="400" type="curve" smooth="yes"/>
      <point x="104" y="586" type="line" smooth="yes"/>
      <point x="104" y="632.396"/>
      <point x="114.177" y="650"/>
      <point x="141" y="650" type="curve" smooth="yes"/>
      <point x="168.49" y="650"/>
      <point x="178" y="633.55"/>
      <point x="178" y="586" type="curve" smooth="yes"/>
      <point x="178" y="400" type="line" smooth="yes"/>
      <point x="178" y="354.204"/>
      <point x="166.673" y="334"/>
    </contour>
    <contour>
      <point x="567" y="-9" type="curve" smooth="yes"/>
      <point x="640.887" y="-9"/>
      <point x="675" y="32.0617"/>
      <point x="675" y="121" type="curve" smooth="yes"/>
      <point x="675" y="307" type="line" smooth="yes"/>
      <point x="675" y="393.123"/>
      <point x="639.667" y="435"/>
      <point x="567" y="435" type="curve" smooth="yes"/>
      <point x="494.776" y="435"/>
      <point x="460" y="393.399"/>
      <point x="460" y="307" type="curve" smooth="yes"/>
      <point x="460" y="121" type="line" smooth="yes"/>
      <point x="460" y="34.1853"/>
      <point x="495.545" y="-9"/>
    </contour>
    <contour>
      <point x="567" y="55" type="curve" smooth="yes"/>
      <point x="540.212" y="55"/>
      <point x="530" y="73.2162"/>
      <point x="530" y="121" type="curve" smooth="yes"/>
      <point x="530" y="307" type="line" smooth="yes"/>
      <point x="530" y="353.396"/>
      <point x="540.177" y="371"/>
      <point x="567" y="371" type="curve" smooth="yes"/>
      <point x="594.49" y="371"/>
      <point x="604" y="354.55"/>
      <point x="604" y="307" type="curve" smooth="yes"/>
      <point x="604" y="121" type="line" smooth="yes"/>
      <point x="604" y="75.2042"/>
      <point x="592.673" y="55"/>
    </contour>
    <contour>
      <point x="851" y="-8" type="curve" smooth="yes"/>
      <point x="924.887" y="-8"/>
      <point x="959" y="33.0617"/>
      <point x="959" y="122" type="curve" smooth="yes"/>
      <point x="959" y="308" type="line" smooth="yes"/>
      <point x="959" y="394.123"/>
      <point x="923.667" y="436"/>
      <point x="851" y="436" type="curve" smooth="yes"/>
      <point x="778.776" y="436"/>
      <point x="744" y="394.399"/>
      <point x="744" y="308" type="curve" smooth="yes"/>
      <point x="744" y="122" type="line" smooth="yes"/>
      <point x="744" y="35.1853"/>
      <point x="779.545" y="-8"/>
    </contour>
    <contour>
      <point x="851" y="56" type="curve" smooth="yes"/>
      <point x="824.212" y="56"/>
      <point x="814" y="74.2162"/>
      <point x="814" y="122" type="curve" smooth="yes"/>
      <point x="814" y="308" type="line" smooth="yes"/>
      <point x="814" y="354.396"/>
      <point x="824.177" y="372"/>
      <point x="851" y="372" type="curve" smooth="yes"/>
      <point x="878.49" y="372"/>
      <point x="888" y="355.55"/>
      <point x="888" y="308" type="curve" smooth="yes"/>
      <point x="888" y="122" type="line" smooth="yes"/>
      <point x="888" y="76.2042"/>
      <point x="876.673" y="56"/>
    </contour>
  </outline>
</glyph>
<glyph name="minute" format="2">
  <advance width="168"/>
  <unicode hex="2032"/>
  <outline>
    <contour>
      <point x="40" y="590" type="line"/>
      <point x="98" y="590" type="line"/>
      <point x="133" y="722" type="line"/>
      <point x="58" y="722" type="line"/>
    </contour>
  </outline>
</glyph>
<glyph name="Euro" format="2">
  <advance width="465"/>
  <unicode hex="20AC"/>
  <outline>
    <contour>
      <point x="31" y="259" type="line"/>
      <point x="95" y="259" type="line"/>
      <point x="95" y="183" type="line" smooth="yes"/>
      <point x="95" y="54.0043"/>
      <point x="147.265" y="-8"/>
      <point x="256" y="-8" type="curve" smooth="yes"/>
      <point x="355.044" y="-8"/>
      <point x="410.379" y="51.2119"/>
      <point x="413" y="160" type="curve"/>
      <point x="342" y="160" type="line"/>
      <point x="336.424" y="88.9091"/>
      <point x="310.667" y="58"/>
      <point x="257" y="58" type="curve" smooth="yes"/>
      <point x="196.284" y="58"/>
      <point x="170" y="94.8582"/>
      <point x="170" y="180" type="curve" smooth="yes"/>
      <point x="170" y="259" type="line"/>
      <point x="310" y="259" type="line"/>
      <point x="323" y="323" type="line"/>
      <point x="170" y="323" type="line"/>
      <point x="170" y="390" type="line"/>
      <point x="336" y="390" type="line"/>
      <point x="348" y="455" type="line"/>
      <point x="170" y="455" type="line"/>
      <point x="170" y="539" type="line" smooth="yes"/>
      <point x="170" y="613"/>
      <point x="199" y="650"/>
      <point x="257" y="650" type="curve" smooth="yes"/>
      <point x="312" y="650"/>
      <point x="337.823" y="619.62"/>
      <point x="342" y="550" type="curve"/>
      <point x="412" y="550" type="line"/>
      <point x="409.292" y="658.331"/>
      <point x="354.487" y="717"/>
      <point x="256" y="717" type="curve" smooth="yes"/>
      <point x="152.066" y="717"/>
      <point x="95" y="652.137"/>
      <point x="95" y="534" type="curve" smooth="yes"/>
      <point x="95" y="455" type="line"/>
      <point x="31" y="455" type="line"/>
      <point x="31" y="390" type="line"/>
      <point x="95" y="390" type="line"/>
      <point x="95" y="323" type="line"/>
      <point x="31" y="323" type="line"/>
    </contour>
  </outline>
</glyph>
<glyph name="minus" format="2">
  <advance width="402"/>
  <unicode hex="2212"/>
  <outline>
    <contour>
      <point x="51" y="323" type="line"/>
      <point x="333" y="323" type="line"/>
      <point x="333" y="389" type="line"/>
      <point x="51" y="389" type="line"/>
    </contour>
  </outline>
</glyph>
<glyph name="Cacute.loclPLK" format="2">
  <advance width="489"/>
  <outline>
    <component base="C"/>
    <contour>
      <point x="216" y="777" type="line"/>
      <point x="274" y="777" type="line"/>
      <point x="309" y="909" type="line"/>
      <point x="234" y="909" type="line"/>
    </contour>
  </outline>
</glyph>
<glyph name="Sacute.loclPLK" format="2">
  <advance width="436"/>
  <outline>
    <component base="S"/>
    <contour>
      <point x="190" y="777" type="line"/>
      <point x="248" y="777" type="line"/>
      <point x="283" y="909" type="line"/>
      <point x="208" y="909" type="line"/>
    </contour>
  </outline>
</glyph>
<glyph name="eight.osf" format="2">
  <advance width="412"/>
  <outline>
    <contour>
      <point x="124" y="371" type="curve"/>
      <point x="76.6667" y="345"/>
      <point x="53" y="299.333"/>
      <point x="53" y="234" type="curve" smooth="yes"/>
      <point x="53" y="157" type="line" smooth="yes"/>
      <point x="53" y="53.2919"/>
      <point x="110.414" y="-9"/>
      <point x="206" y="-9" type="curve" smooth="yes"/>
      <point x="302.594" y="-9"/>
      <point x="359" y="52.1983"/>
      <point x="359" y="157" type="curve" smooth="yes"/>
      <point x="359" y="234" type="line" smooth="yes"/>
      <point x="359" y="300.654"/>
      <point x="335.876" y="345.912"/>
      <point x="289" y="371" type="curve"/>
      <point x="330.677" y="391.839"/>
      <point x="355" y="438.273"/>
      <point x="355" y="497" type="curve" smooth="yes"/>
      <point x="355" y="562" type="line" smooth="yes"/>
      <point x="355" y="656.21"/>
      <point x="297.152" y="716"/>
      <point x="206" y="716" type="curve" smooth="yes"/>
      <point x="115.515" y="716"/>
      <point x="57" y="655.521"/>
      <point x="57" y="562" type="curve" smooth="yes"/>
      <point x="57" y="497" type="line" smooth="yes"/>
      <point x="57" y="440.214"/>
      <point x="81.9159" y="393.357"/>
    </contour>
    <contour>
      <point x="206" y="401" type="curve" smooth="yes"/>
      <point x="155" y="401"/>
      <point x="126" y="435.8"/>
      <point x="126" y="497" type="curve" smooth="yes"/>
      <point x="126" y="562" type="line" smooth="yes"/>
      <point x="126" y="617.833"/>
      <point x="156.37" y="652"/>
      <point x="206" y="652" type="curve" smooth="yes"/>
      <point x="256.533" y="652"/>
      <point x="287" y="618.148"/>
      <point x="287" y="562" type="curve" smooth="yes"/>
      <point x="287" y="497" type="line" smooth="yes"/>
      <point x="287" y="435.387"/>
      <point x="257.986" y="401"/>
    </contour>
    <contour>
      <point x="206" y="54" type="curve" smooth="yes"/>
      <point x="151.2" y="54"/>
      <point x="122" y="90.5"/>
      <point x="122" y="159" type="curve" smooth="yes"/>
      <point x="122" y="236" type="line" smooth="yes"/>
      <point x="122" y="303.151"/>
      <point x="151.236" y="339"/>
      <point x="206" y="339" type="curve" smooth="yes"/>
      <point x="262.667" y="339"/>
      <point x="291" y="304.667"/>
      <point x="291" y="236" type="curve" smooth="yes"/>
      <point x="291" y="159" type="line" smooth="yes"/>
      <point x="291" y="89.3309"/>
      <point x="262.399" y="54"/>
    </contour>
  </outline>
</glyph>
<glyph name="four.osf" format="2">
  <advance width="425"/>
  <outline>
    <contour>
      <point x="37" y="0" type="line"/>
      <point x="252" y="0" type="line"/>
      <point x="252" y="-162" type="line"/>
      <point x="327" y="-162" type="line"/>
      <point x="327" y="0" type="line"/>
      <point x="389" y="0" type="line"/>
      <point x="389" y="67" type="line"/>
      <point x="327" y="67" type="line"/>
      <point x="327" y="232" type="line"/>
      <point x="252" y="232" type="line"/>
      <point x="252" y="67" type="line"/>
      <point x="110" y="67" type="line"/>
      <point x="260" y="539" type="line"/>
      <point x="185" y="539" type="line"/>
      <point x="37" y="67" type="line"/>
    </contour>
  </outline>
</glyph>
<glyph name="hardcyr.loclBGR" format="2">
  <advance width="494"/>
  <outline>
    <contour>
      <point x="140" y="132.79" type="line"/>
      <point x="209" y="132.79" type="line"/>
      <point x="209" y="529" type="line"/>
      <point x="140" y="529" type="line"/>
    </contour>
    <contour>
      <point x="180.485" y="466" type="line"/>
      <point x="180.485" y="529" type="line"/>
      <point x="0" y="529" type="line"/>
      <point x="0" y="466" type="line"/>
    </contour>
    <contour>
      <point x="140" y="132.748" type="line"/>
      <point x="140" y="48.9265"/>
      <point x="207.566" y="-8"/>
      <point x="307.054" y="-8" type="curve" smooth="yes"/>
      <point x="412.782" y="-8"/>
      <point x="481.347" y="67.5478"/>
      <point x="481.347" y="184.043" type="curve" smooth="yes"/>
      <point x="481.347" y="291.286"/>
      <point x="414.518" y="362.561"/>
      <point x="313.964" y="362.561" type="curve" smooth="yes"/>
      <point x="272.726" y="362.561"/>
      <point x="233.47" y="359.998"/>
      <point x="189" y="353.551" type="curve"/>
      <point x="189" y="289.592" type="line"/>
      <point x="233.47" y="296.04"/>
      <point x="255.1" y="298.603"/>
      <point x="296.339" y="298.603" type="curve" smooth="yes"/>
      <point x="365.193" y="298.603"/>
      <point x="411.241" y="251.74"/>
      <point x="411.241" y="181.669" type="curve" smooth="yes"/>
      <point x="411.241" y="105.05"/>
      <point x="370.687" y="53.9585"/>
      <point x="309.871" y="53.9585" type="curve" smooth="yes"/>
      <point x="244.835" y="53.9585"/>
      <point x="209" y="81.9492"/>
      <point x="209" y="132.748" type="curve"/>
    </contour>
  </outline>
</glyph>
<glyph name="icyr.loclBGR" format="2">
  <advance width="426"/>
  <anchor x="213" y="590" name="top"/>
  <outline>
    <contour>
      <point x="296" y="212.686" type="line"/>
      <point x="296" y="186.987" type="line" smooth="yes"/>
      <point x="296" y="104.283"/>
      <point x="282.812" y="54"/>
      <point x="214" y="54" type="curve" smooth="yes"/>
      <point x="145.188" y="54"/>
      <point x="130" y="104.281"/>
      <point x="130" y="186.987" type="curve" smooth="yes"/>
      <point x="130" y="529" type="line"/>
      <point x="60" y="529" type="line"/>
      <point x="60" y="163" type="line" smooth="yes"/>
      <point x="60" y="59.163"/>
      <point x="97.1253" y="-8"/>
      <point x="193" y="-8" type="curve" smooth="yes"/>
      <point x="289.935" y="-8"/>
      <point x="326" y="75.151"/>
      <point x="326" y="163" type="curve" smooth="yes"/>
      <point x="326" y="212.686" type="line"/>
    </contour>
    <contour>
      <point x="300" y="0" type="line"/>
      <point x="366" y="0" type="line"/>
      <point x="366" y="529" type="line"/>
      <point x="296" y="529" type="line"/>
      <point x="296" y="46.1435" type="line"/>
      <point x="300" y="46.4773" type="line"/>
    </contour>
  </outline>
  <guideline angle="90" name="h1" x="213" y="0"/>
</glyph>
<glyph name="nacute.loclPLK" format="2">
  <advance width="425"/>
  <outline>
    <component base="n"/>
    <contour>
      <point x="184" y="590" type="line"/>
      <point x="242" y="590" type="line"/>
      <point x="277" y="722" type="line"/>
      <point x="202" y="722" type="line"/>
    </contour>
  </outline>
</glyph>
<glyph name="oacute.loclPLK" format="2">
  <advance width="418"/>
  <outline>
    <contour>
      <point x="211" y="-8" type="curve" smooth="yes"/>
      <point x="313.83" y="-8"/>
      <point x="368" y="54.1062"/>
      <point x="368" y="172" type="curve" smooth="yes"/>
      <point x="368" y="357" type="line" smooth="yes"/>
      <point x="368" y="475.875"/>
      <point x="314.112" y="538"/>
      <point x="211" y="538" type="curve" smooth="yes"/>
      <point x="105.527" y="538"/>
      <point x="51" y="476.317"/>
      <point x="51" y="357" type="curve" smooth="yes"/>
      <point x="51" y="172" type="line" smooth="yes"/>
      <point x="51" y="53.6575"/>
      <point x="105.807" y="-8"/>
    </contour>
    <contour>
      <point x="210" y="54" type="curve" smooth="yes"/>
      <point x="148.841" y="54"/>
      <point x="121" y="93.4157"/>
      <point x="121" y="180" type="curve" smooth="yes"/>
      <point x="121" y="349" type="line" smooth="yes"/>
      <point x="121" y="435.584"/>
      <point x="148.841" y="475"/>
      <point x="210" y="475" type="curve" smooth="yes"/>
      <point x="270.328" y="475"/>
      <point x="298" y="435.379"/>
      <point x="298" y="349" type="curve" smooth="yes"/>
      <point x="298" y="180" type="line" smooth="yes"/>
      <point x="298" y="95.6747"/>
      <point x="268.894" y="54"/>
    </contour>
    <contour>
      <point x="182" y="590" type="line"/>
      <point x="240" y="590" type="line"/>
      <point x="275" y="722" type="line"/>
      <point x="200" y="722" type="line"/>
    </contour>
  </outline>
</glyph>
<glyph name="softcyr.loclBGR" format="2">
  <advance width="461"/>
  <outline>
    <contour>
      <point x="60" y="132.748" type="line"/>
      <point x="129" y="132.748" type="line"/>
      <point x="129" y="529" type="line"/>
      <point x="60" y="529" type="line"/>
    </contour>
    <contour>
      <point x="60" y="132.748" type="line"/>
      <point x="60" y="48.9265"/>
      <point x="127.566" y="-8"/>
      <point x="227.054" y="-8" type="curve" smooth="yes"/>
      <point x="332.782" y="-8"/>
      <point x="401.347" y="67.5478"/>
      <point x="401.347" y="184.043" type="curve" smooth="yes"/>
      <point x="401.347" y="291.286"/>
      <point x="334.518" y="362.561"/>
      <point x="233.964" y="362.561" type="curve" smooth="yes"/>
      <point x="192.726" y="362.561"/>
      <point x="153.47" y="359.998"/>
      <point x="109" y="353.551" type="curve"/>
      <point x="109" y="289.592" type="line"/>
      <point x="153.47" y="296.04"/>
      <point x="175.1" y="298.603"/>
      <point x="216.339" y="298.603" type="curve" smooth="yes"/>
      <point x="285.193" y="298.603"/>
      <point x="331.241" y="251.74"/>
      <point x="331.241" y="181.669" type="curve" smooth="yes"/>
      <point x="331.241" y="105.05"/>
      <point x="290.687" y="53.9585"/>
      <point x="229.871" y="53.9585" type="curve" smooth="yes"/>
      <point x="164.835" y="53.9585"/>
      <point x="129" y="81.9492"/>
      <point x="129" y="132.748" type="curve"/>
    </contour>
  </outline>
</glyph>
<glyph name="three.dnom" format="2">
  <advance width="274"/>
  <outline>
    <contour>
      <point x="31" y="121" type="line"/>
      <point x="31" y="96" type="line" smooth="yes"/>
      <point x="31" y="31.2369"/>
      <point x="68.9671" y="-6"/>
      <point x="135" y="-6" type="curve" smooth="yes"/>
      <point x="199.667" y="-6"/>
      <point x="242" y="36.3333"/>
      <point x="242" y="101" type="curve" smooth="yes"/>
      <point x="242" y="137" type="line" smooth="yes"/>
      <point x="242" y="186.035"/>
      <point x="228.473" y="211.363"/>
      <point x="195" y="225" type="curve"/>
      <point x="225.969" y="239.811"/>
      <point x="240" y="265.067"/>
      <point x="240" y="306" type="curve" smooth="yes"/>
      <point x="240" y="331" type="line" smooth="yes"/>
      <point x="240" y="396.333"/>
      <point x="200.333" y="436"/>
      <point x="135" y="436" type="curve" smooth="yes"/>
      <point x="71.4224" y="436"/>
      <point x="31" y="396.744"/>
      <point x="31" y="335" type="curve" smooth="yes"/>
      <point x="31" y="309" type="line"/>
      <point x="99" y="309" type="line"/>
      <point x="99" y="332" type="line" smooth="yes"/>
      <point x="99" y="358.61"/>
      <point x="111.285" y="373"/>
      <point x="134" y="373" type="curve" smooth="yes"/>
      <point x="157.333" y="373"/>
      <point x="169" y="358"/>
      <point x="169" y="328" type="curve" smooth="yes"/>
      <point x="169" y="297" type="line" smooth="yes"/>
      <point x="169" y="267"/>
      <point x="156" y="252"/>
      <point x="130" y="252" type="curve" smooth="yes"/>
      <point x="112" y="252" type="line"/>
      <point x="112" y="190" type="line"/>
      <point x="130" y="190" type="line" smooth="yes"/>
      <point x="159.17" y="190"/>
      <point x="171" y="175.862"/>
      <point x="171" y="141" type="curve" smooth="yes"/>
      <point x="171" y="104" type="line" smooth="yes"/>
      <point x="171" y="72.6667"/>
      <point x="158.667" y="57"/>
      <point x="134" y="57" type="curve" smooth="yes"/>
      <point x="111.545" y="57"/>
      <point x="98" y="72.4259"/>
      <point x="98" y="98" type="curve" smooth="yes"/>
      <point x="98" y="121" type="line"/>
    </contour>
  </outline>
</glyph>
<glyph name="three.osf" format="2">
  <advance width="414"/>
  <outline>
    <contour>
      <point x="56" y="21" type="line"/>
      <point x="56" y="-21" type="line" smooth="yes"/>
      <point x="56" y="-111.155"/>
      <point x="111.893" y="-162"/>
      <point x="211" y="-162" type="curve" smooth="yes"/>
      <point x="312.974" y="-162"/>
      <point x="369" y="-106.684"/>
      <point x="369" y="-6" type="curve" smooth="yes"/>
      <point x="369" y="54" type="line" smooth="yes"/>
      <point x="369" y="138.381"/>
      <point x="349.499" y="175.864"/>
      <point x="292" y="202" type="curve"/>
      <point x="344.834" y="225.775"/>
      <point x="365" y="263.621"/>
      <point x="365" y="339" type="curve" smooth="yes"/>
      <point x="365" y="394" type="line" smooth="yes"/>
      <point x="365" y="488.053"/>
      <point x="310.918" y="540"/>
      <point x="213" y="540" type="curve" smooth="yes"/>
      <point x="113.794" y="540"/>
      <point x="58" y="487.086"/>
      <point x="58" y="393" type="curve" smooth="yes"/>
      <point x="58" y="353" type="line"/>
      <point x="132" y="353" type="line"/>
      <point x="132" y="392" type="line" smooth="yes"/>
      <point x="132" y="445.603"/>
      <point x="160.587" y="476"/>
      <point x="211" y="476" type="curve" smooth="yes"/>
      <point x="263.09" y="476"/>
      <point x="292" y="444.235"/>
      <point x="292" y="387" type="curve" smooth="yes"/>
      <point x="292" y="336" type="line" smooth="yes"/>
      <point x="292" y="262.5"/>
      <point x="266.8" y="231"/>
      <point x="208" y="231" type="curve" smooth="yes"/>
      <point x="178" y="231" type="line"/>
      <point x="178" y="165" type="line"/>
      <point x="208" y="165" type="line" smooth="yes"/>
      <point x="268.721" y="165"/>
      <point x="295" y="131.774"/>
      <point x="295" y="55" type="curve" smooth="yes"/>
      <point x="295" y="-9" type="line" smooth="yes"/>
      <point x="295" y="-67.9719"/>
      <point x="266.385" y="-99"/>
      <point x="212" y="-99" type="curve" smooth="yes"/>
      <point x="159.655" y="-99"/>
      <point x="130" y="-68.9837"/>
      <point x="130" y="-16" type="curve" smooth="yes"/>
      <point x="130" y="21" type="line"/>
    </contour>
  </outline>
</glyph>
<glyph name="zero.dnom" format="2">
  <advance width="283"/>
  <outline>
    <contour>
      <point x="141" y="-6" type="curve" smooth="yes"/>
      <point x="214.887" y="-6"/>
      <point x="249" y="35.0617"/>
      <point x="249" y="124" type="curve" smooth="yes"/>
      <point x="249" y="310" type="line" smooth="yes"/>
      <point x="249" y="396.123"/>
      <point x="213.667" y="438"/>
      <point x="141" y="438" type="curve" smooth="yes"/>
      <point x="68.776" y="438"/>
      <point x="34" y="396.399"/>
      <point x="34" y="310" type="curve" smooth="yes"/>
      <point x="34" y="124" type="line" smooth="yes"/>
      <point x="34" y="37.1853"/>
      <point x="69.5448" y="-6"/>
    </contour>
    <contour>
      <point x="141" y="58" type="curve" smooth="yes"/>
      <point x="114.212" y="58"/>
      <point x="104" y="76.2162"/>
      <point x="104" y="124" type="curve" smooth="yes"/>
      <point x="104" y="310" type="line" smooth="yes"/>
      <point x="104" y="355.73"/>
      <point x="114.562" y="374"/>
      <point x="141" y="374" type="curve" smooth="yes"/>
      <point x="168.49" y="374"/>
      <point x="178" y="357.55"/>
      <point x="178" y="310" type="curve" smooth="yes"/>
      <point x="178" y="124" type="line" smooth="yes"/>
      <point x="178" y="77.1714"/>
      <point x="167.252" y="58"/>
    </contour>
  </outline>
</glyph>
<glyph name="zero.osf" format="2">
  <advance width="412"/>
  <outline>
    <contour>
      <point x="207" y="-9" type="curve" smooth="yes"/>
      <point x="308.333" y="-9"/>
      <point x="359" y="53.3333"/>
      <point x="359" y="178" type="curve" smooth="yes"/>
      <point x="359" y="352" type="line" smooth="yes"/>
      <point x="359" y="476.667"/>
      <point x="308.333" y="539"/>
      <point x="207" y="539" type="curve" smooth="yes"/>
      <point x="104.607" y="539"/>
      <point x="53" y="476.335"/>
      <point x="53" y="352" type="curve" smooth="yes"/>
      <point x="53" y="178" type="line" smooth="yes"/>
      <point x="53" y="53.3333"/>
      <point x="104.333" y="-9"/>
    </contour>
    <contour>
      <point x="207" y="57" type="curve" smooth="yes"/>
      <point x="148.54" y="57"/>
      <point x="128" y="91.3207"/>
      <point x="128" y="189" type="curve" smooth="yes"/>
      <point x="128" y="340" type="line" smooth="yes"/>
      <point x="128" y="437.679"/>
      <point x="148.54" y="472"/>
      <point x="207" y="472" type="curve" smooth="yes"/>
      <point x="265.091" y="472"/>
      <point x="285" y="438.308"/>
      <point x="285" y="340" type="curve" smooth="yes"/>
      <point x="285" y="189" type="line" smooth="yes"/>
      <point x="285" y="95.1349"/>
      <point x="262.466" y="57"/>
    </contour>
  </outline>
</glyph>
